<?xml version="1.0" standalone="no"?>
<!DOCTYPE svg PUBLIC "-//W3C//DTD SVG 1.1//EN" "http://www.w3.org/Graphics/SVG/1.1/DTD/svg11.dtd" >
<svg xmlns="http://www.w3.org/2000/svg" width="100%" height="100%">
<metadata>
Created by FontXChange 20100429 at Mon Jan 13 14:09:08 2014
 By Hugh Francis
[c] Copyright 2006, The Font Bureau, Inc. All Rights Reserved.
</metadata>
<defs>
<font id="BentonModDisp-Regular" horiz-adv-x="500" >
  <font-face 
    font-family="BentonModDisp RG"
    font-weight="400"
    font-stretch="normal"
    units-per-em="1000"
    panose-1="2 0 6 6 8 0 0 2 0 4"
    ascent="780"
    descent="-220"
    x-height="418"
    cap-height="684"
    bbox="-84 -216 947 887"
    underline-thickness="20"
    underline-position="-113"
    stemh="15"
    stemv="71"
    unicode-range="U+0020-FB06"
  />
<missing-glyph 
 />
    <glyph glyph-name="fi" unicode="fi" horiz-adv-x="494" 
d="M25 0v15h8c44 0 54 12 54 57v331h-62v15h62v51c0 136 64 229 192 229c89 0 131 -43 131 -82c0 -28 -22 -48 -45 -48c-25 0 -46 14 -46 41c0 17 8 28 16 35c5 4 9 8 9 12c0 13 -25 28 -69 28c-82 0 -116 -73 -116 -184v-82h117l143 9v-355c0 -45 10 -57 54 -57h8v-15h-196
v15h8c44 0 54 12 54 57v273c0 47 -10 58 -54 58h-134v-331c0 -45 10 -57 54 -57h24v-15h-212z" />
    <glyph glyph-name="fl" unicode="fl" horiz-adv-x="491" 
d="M25 0v15h8c44 0 54 12 54 57v331h-62v15h62v59c0 114 60 221 192 221c31 0 56 -5 76 -13l63 15v-624c0 -48 10 -61 54 -61h8v-15h-192v15h4c45 0 55 13 55 61v327h-188v-331c0 -45 10 -57 54 -57h24v-15h-212zM159 418h188v153c-18 6 -28 20 -28 39c0 17 9 29 16 34
c5 4 7 8 7 12c0 17 -30 28 -67 28c-82 0 -116 -73 -116 -184v-82z" />
    <glyph glyph-name="f_f_l" unicode="ffl" horiz-adv-x="751" 
d="M25 0v14h8c44 0 54 12 54 57v332h-62v15h62v59c0 124 67 221 192 221c89 0 123 -42 125 -57c25 30 67 57 131 57c32 0 60 -5 80 -13l63 15v-625c0 -48 10 -61 54 -61h8v-14h-192v14h4c45 0 55 13 55 61v328h-188v-332c0 -45 10 -57 54 -57h24v-14h-212v14h8
c44 0 54 12 54 57v332h-188v-332c0 -45 10 -57 54 -57h24v-14h-212zM419 418h188v153c-18 6 -27 21 -27 40c0 17 8 28 15 33c5 4 7 8 7 12c0 17 -30 28 -67 28c-82 0 -116 -72 -116 -184v-82zM159 418h188v49c0 35 5 75 16 103c-24 0 -43 21 -43 45c0 14 7 26 15 34
s3 20 -11 27c-12 6 -31 8 -49 8c-96 0 -116 -97 -116 -184v-82z" />
    <glyph glyph-name="f_f_i" unicode="ffi" horiz-adv-x="753" 
d="M25 0v14h8c44 0 54 12 54 57v332h-62v15h62v59c0 129 70 221 192 221c62 0 108 -21 123 -54c30 31 71 54 136 54c89 0 131 -43 131 -82c0 -28 -22 -48 -45 -48c-25 0 -45 15 -45 42c0 17 7 27 15 34c5 4 9 8 9 12c0 13 -25 28 -69 28c-81 0 -116 -73 -116 -184v-82h117
l143 9v-356c0 -45 20 -57 64 -57h18v-14h-216v14h8c44 0 54 12 54 57v275c0 47 -10 57 -54 57h-134v-332c0 -45 10 -57 54 -57h24v-14h-212v14h8c44 0 54 12 54 57v332h-187v-332c0 -45 10 -57 54 -57h24v-14h-212zM159 418h187v69c0 27 4 56 13 78c-25 7 -39 22 -39 45
c0 14 7 26 15 34c4 4 7 8 7 13c0 14 -26 27 -67 27c-85 1 -116 -77 -116 -184v-82z" />
    <glyph glyph-name="f_f" unicode="ff" horiz-adv-x="542" 
d="M25 0v14h8c44 0 54 12 54 57v332h-62v15h62v59c0 129 70 221 192 221c60 0 99 -21 119 -49c26 30 63 49 111 49c60 0 93 -34 93 -77c0 -33 -22 -52 -49 -52s-44 17 -44 43c0 17 8 29 16 37c6 6 11 11 11 17c0 10 -14 20 -33 20c-68 0 -84 -72 -84 -171v-97h102v-15h-102
v-332c0 -45 10 -57 54 -57h19v-14h-207v14h8c44 0 54 12 54 57v332h-188v-332c0 -45 10 -57 54 -57h24v-14h-212zM159 418h188v69c0 27 3 54 9 78c-20 5 -36 22 -36 45c0 14 7 26 15 34c4 4 7 8 7 13c0 14 -26 27 -67 27c-83 0 -116 -73 -116 -184v-82z" />
    <glyph glyph-name="f_j" unicode="fj" horiz-adv-x="484" 
d="M25 0v15h8c44 0 54 12 54 57v331h-62v15h62v49c0 136 65 231 192 231c89 0 131 -43 131 -82c0 -28 -22 -48 -45 -48c-25 0 -45 15 -45 42c0 17 7 27 15 34c5 4 9 8 9 12c0 17 -36 28 -69 28c-82 0 -116 -73 -116 -184v-82h117l143 9v-455c0 -89 -40 -175 -135 -177
c-58 -1 -98 29 -98 78c0 29 22 51 49 51c26 0 42 -19 42 -43c0 -15 -8 -25 -16 -32s-17 -12 -17 -21c0 -14 21 -22 39 -21c32 1 64 13 64 130v408c0 47 -10 58 -54 58h-134v-331c0 -45 10 -57 54 -57h24v-15h-212z" />
    <glyph glyph-name=".notdef" 
 />
    <glyph glyph-name="NUL" horiz-adv-x="0" 
 />
    <glyph glyph-name="Eth" unicode="&#xd0;" horiz-adv-x="636" 
d="M10 0v15h29c46 0 63 13 63 60v257h-83v19h83v258c0 47 -17 60 -63 60h-29v15h274c172 0 319 -126 319 -340c0 -231 -149 -344 -321 -344h-272zM249 15h36c154 0 225 103 225 325c0 214 -73 329 -226 329h-35c-46 0 -64 -12 -64 -59v-259h159v-19h-159v-258
c0 -47 18 -59 64 -59z" />
    <glyph glyph-name="eth" unicode="&#xf0;" horiz-adv-x="439" 
d="M220 -15c-94 0 -196 98 -196 225c0 130 102 223 196 223c46 0 85 -17 105 -42c-8 75 -40 150 -70 198c1 0 -103 -66 -103 -66l-7 12l102 65c-23 36 -50 66 -79 89l9 11c28 -18 64 -44 99 -81l97 62l7 -13s-93 -59 -93 -60c67 -74 128 -189 128 -363
c0 -169 -101 -260 -195 -260zM220 -1c83 0 111 95 111 210c0 116 -30 210 -111 210s-111 -92 -111 -208c0 -115 28 -212 111 -212z" />
    <glyph glyph-name="Lslash" unicode="&#x141;" horiz-adv-x="545" 
d="M10 0v15h29c46 0 63 12 63 60v209l-76 -42v21l76 42v304c0 48 -17 60 -63 60h-29v15h284v-15h-45c-46 0 -64 -12 -64 -60v-269c0 1 185 102 185 102v-22l-185 -101v-244c0 -48 18 -60 64 -60h45c162 0 185 90 200 252h16l-17 -267h-483z" />
    <glyph glyph-name="lslash" unicode="&#x142;" horiz-adv-x="220" 
d="M17 0v14h4c45 0 55 12 55 60v206l-68 -38v18l68 38v313c0 48 -10 60 -55 60h-8v14l134 15v-373l68 38v-18l-68 -38v-235c0 -48 10 -60 54 -60h8v-14h-192z" />
    <glyph glyph-name="Scaron" unicode="&#x160;" horiz-adv-x="526" 
d="M312 -11c-85 0 -132 26 -167 44c-19 10 -32 18 -48 18s-29 -20 -38 -61h-13l-7 271h15c35 -189 162 -256 262 -256c76 0 134 52 134 136c0 91 -79 127 -183 159c-106 33 -222 64 -222 209c0 105 80 185 182 185c56 0 98 -16 139 -45c13 -9 23 -17 40 -17
c16 0 27 16 40 61h13l7 -269h-15c-39 188 -139 255 -222 255c-80 0 -132 -60 -132 -132c0 -71 26 -113 180 -157c143 -41 220 -88 220 -211c0 -116 -82 -190 -185 -190zM238 721l-89 143l7 4l108 -76l108 76l6 -4l-89 -143h-51z" />
    <glyph glyph-name="scaron" unicode="&#x161;" horiz-adv-x="394" 
d="M221 -10c-62 0 -111 35 -135 35c-15 0 -28 -12 -36 -34h-10v170h9c17 -98 97 -157 176 -157c59 0 101 34 101 81c0 45 -31 62 -132 91c-88 25 -149 48 -149 135c0 72 54 117 130 117c58 0 84 -26 115 -26c16 0 29 8 36 25h10v-152h-9c-16 82 -73 139 -157 139
c-46 0 -83 -30 -83 -74c0 -47 39 -62 123 -84c109 -29 158 -60 158 -139c0 -80 -61 -127 -147 -127zM172 458l-89 143l7 4l108 -76l108 76l6 -4l-89 -143h-51z" />
    <glyph glyph-name="Yacute" unicode="&#xdd;" horiz-adv-x="640" 
d="M182 0v15h38c45 0 63 21 63 70v194l-196 328c-23 38 -42 62 -86 62h-6v15h244v-15h-25c-27 0 -45 -11 -45 -30c0 -8 4 -18 11 -30l178 -302l132 234c26 46 31 68 31 85c0 26 -21 43 -58 43h-16v15h198v-15c-70 -10 -90 -58 -134 -133l-144 -246v-205c0 -49 17 -70 62 -70
h38v-15h-285zM296 727l-8 7l88 118c17 23 35 33 54 33c21 0 37 -17 37 -34c0 -16 -8 -33 -38 -50z" />
    <glyph glyph-name="yacute" unicode="&#xfd;" horiz-adv-x="446" 
d="M87 -208c-55 0 -84 34 -84 75c0 31 21 53 51 53c24 0 41 -21 41 -42c0 -18 -7 -28 -14 -35c-6 -6 -11 -9 -11 -17c0 -10 11 -17 26 -17c46 0 77 63 106 133l13 31l-150 364c-18 45 -32 65 -73 68v13h201v-13c-35 -3 -51 -14 -52 -30c-1 -15 4 -32 12 -53l99 -262l90 236
c9 23 19 51 19 70c0 26 -17 36 -55 39v13h148v-13c-44 -3 -55 -27 -71 -68l-161 -394c-50 -123 -88 -151 -135 -151zM205 474l-8 7l88 118c17 23 35 33 54 33c21 0 37 -17 37 -34c0 -16 -8 -33 -38 -50z" />
    <glyph glyph-name="Thorn" unicode="&#xde;" horiz-adv-x="543" 
d="M10 0v15h29c46 0 63 12 63 60v534c0 48 -17 60 -63 60h-29v15h284v-15h-45c-46 0 -64 -12 -64 -60v-61h99c145 0 245 -58 245 -181c0 -131 -116 -193 -259 -193h-85v-99c0 -48 18 -60 64 -60h45v-15h-284zM185 190h88c147 0 160 100 160 173c0 82 -15 170 -154 170h-30
c-46 0 -64 -12 -64 -60v-283z" />
    <glyph glyph-name="thorn" unicode="&#xfe;" horiz-adv-x="474" 
d="M1 -204v14h12c44 0 54 11 54 57v747c0 46 -10 57 -54 57h-7v13l130 16v-274l-3 -102h2c32 62 75 105 140 105c82 0 175 -85 175 -219c0 -132 -91 -220 -179 -220c-68 0 -110 47 -137 108h-1s4 -70 4 -125v-106c0 -46 10 -57 54 -57h23v-14h-213zM263 6
c77 0 103 94 103 202c0 104 -24 205 -101 205c-49 0 -129 -58 -129 -204c0 -103 55 -203 127 -203z" />
    <glyph glyph-name="Zcaron" unicode="&#x17d;" horiz-adv-x="574" 
d="M21 0v15l424 654h-170c-149 0 -180 -80 -201 -231h-14l9 246h470v-15l-424 -654h214c148 0 172 99 198 253h14l-17 -268h-503zM265 711l-89 143l7 4l108 -76l108 76l6 -4l-89 -143h-51z" />
    <glyph glyph-name="zcaron" unicode="&#x17e;" horiz-adv-x="401" 
d="M17 0v10l274 395h-90c-93 0 -130 -47 -156 -152h-10l11 165h328v-8l-275 -397h114c105 0 138 62 156 161h10l-11 -174h-351zM174 458l-89 143l7 4l108 -76l108 76l6 -4l-89 -143h-51z" />
    <glyph glyph-name="onehalf" unicode="&#xbd;" horiz-adv-x="705" 
d="M60 296v15h21c26 0 37 6 37 31v234c0 26 -11 32 -37 32h-21v15c66 5 87 18 102 40h12v-321c0 -25 10 -31 36 -31h17v-15h-167zM149 -6l333 659h25l-335 -659h-23zM401 0v15c28 61 56 100 112 156c38 38 57 62 57 101c0 52 -21 80 -65 80c-35 0 -75 -26 -77 -57
c0 -6 2 -9 9 -8c29 4 44 -14 44 -33c0 -20 -16 -33 -37 -33c-24 0 -38 23 -38 46c0 57 53 101 111 101c71 0 117 -38 117 -95c0 -51 -38 -76 -95 -118c-51 -38 -84 -65 -105 -108h131c42 0 51 18 59 65h9l-5 -112h-227z" />
    <glyph glyph-name="onequarter" unicode="&#xbc;" horiz-adv-x="682" 
d="M60 296v15h21c26 0 37 6 37 31v234c0 26 -11 32 -37 32h-21v15c66 5 87 18 102 40h12v-321c0 -25 10 -31 36 -31h17v-15h-167zM149 -6l333 659h25l-335 -659h-23zM467 0v15h18c26 0 38 6 38 32v53h-154v16l172 264h37v-259h56v-21h-56v-53c0 -26 12 -32 37 -32h15v-15
h-163zM391 121h132v202z" />
    <glyph glyph-name="onesuperior" unicode="&#xb9;" horiz-adv-x="287" 
d="M60 296v15h21c26 0 37 6 37 31v234c0 26 -11 32 -37 32h-21v15c66 5 87 18 102 40h12v-321c0 -25 10 -31 36 -31h17v-15h-167z" />
    <glyph glyph-name="threequarters" unicode="&#xbe;" horiz-adv-x="706" 
d="M160 287c-55 0 -106 35 -106 85c0 28 17 46 39 46c21 0 35 -15 35 -34c0 -20 -16 -33 -47 -29c-7 1 -11 0 -10 -4c3 -21 39 -50 86 -50c46 0 75 38 75 92c0 50 -30 80 -78 80c-12 0 -20 -3 -25 -3c-8 0 -15 3 -15 11c0 9 7 12 16 12c5 0 13 -3 24 -3c48 0 71 31 71 84
c0 46 -20 81 -70 81c-36 0 -68 -20 -72 -44c-1 -3 4 -5 9 -5c26 1 39 -11 39 -32c0 -20 -13 -32 -30 -32c-22 0 -37 19 -37 43c0 45 47 88 105 88c70 0 116 -42 116 -101c0 -44 -50 -85 -113 -88v-2c70 -3 121 -41 121 -93c0 -63 -64 -102 -133 -102zM199 -6l333 659h25
l-335 -659h-23zM497 0v15h18c26 0 38 6 38 32v53h-154v16l172 264h37v-259h56v-21h-56v-53c0 -26 12 -32 37 -32h15v-15h-163zM421 121h132v202z" />
    <glyph glyph-name="threesuperior" unicode="&#xb3;" horiz-adv-x="359" 
d="M166 287c-55 0 -106 35 -106 85c0 28 17 46 39 46c21 0 35 -15 35 -34c0 -20 -16 -33 -47 -29c-7 1 -11 0 -10 -4c3 -21 39 -50 86 -50c46 0 75 38 75 92c0 50 -30 80 -78 80c-12 0 -20 -3 -25 -3c-8 0 -15 3 -15 11c0 9 7 12 16 12c5 0 13 -3 24 -3c48 0 71 31 71 84
c0 46 -20 81 -70 81c-36 0 -68 -20 -72 -44c-1 -3 4 -5 9 -5c26 1 39 -11 39 -32c0 -20 -13 -32 -30 -32c-22 0 -37 19 -37 43c0 45 47 88 105 88c70 0 116 -42 116 -101c0 -44 -50 -85 -113 -88v-2c70 -3 121 -41 121 -93c0 -63 -64 -102 -133 -102z" />
    <glyph glyph-name="twosuperior" unicode="&#xb2;" horiz-adv-x="346" 
d="M50 301v15c28 61 56 100 112 156c38 38 57 62 57 101c0 52 -21 80 -65 80c-35 0 -75 -26 -77 -57c0 -6 2 -9 9 -8c29 4 44 -14 44 -33c0 -20 -16 -33 -37 -33c-24 0 -38 23 -38 46c0 57 53 101 111 101c71 0 117 -38 117 -95c0 -51 -38 -76 -95 -118
c-51 -38 -84 -65 -105 -108h131c42 0 51 18 59 65h9l-5 -112h-227z" />
    <glyph glyph-name="brokenbar" unicode="&#xa6;" horiz-adv-x="221" 
d="M102 317v372h17v-372h-17zM102 -204v372h17v-372h-17z" />
    <glyph glyph-name="minus" unicode="&#x2212;" horiz-adv-x="532" 
d="M45 325v21h442v-21h-442z" />
    <glyph glyph-name="multiply" unicode="&#xd7;" horiz-adv-x="532" 
d="M89 132l-14 15l177 176l-177 177l15 15l176 -177l177 177l14 -14l-176 -177l176 -177l-15 -15l-176 177z" />
    <glyph glyph-name="space" unicode=" " horiz-adv-x="229" 
 />
    <glyph glyph-name="exclam" unicode="!" horiz-adv-x="245" 
d="M115 193c0 126 -18 264 -33 342c-7 38 -12 69 -12 87c0 45 18 75 52 75s53 -30 53 -75c0 -18 -4 -50 -12 -87c-16 -78 -35 -216 -35 -342h-13zM122 -7c-32 0 -57 25 -57 57s25 57 57 57s57 -25 57 -57s-25 -57 -57 -57z" />
    <glyph glyph-name="quotedbl" unicode="&#x22;" horiz-adv-x="361" 
d="M254 410l-36 196c-7 39 -2 78 44 78c45 0 51 -39 44 -78l-37 -196h-15zM91 410l-36 196c-7 39 -2 78 44 78c45 0 51 -39 44 -78l-37 -196h-15z" />
    <glyph glyph-name="numbersign" unicode="#" horiz-adv-x="624" 
d="M108 -7l47 177h-130l20 74h130l42 157h-144l21 74h142l47 177h20l-47 -177h194l47 177h19l-47 -177h130l-20 -74h-129l-42 -157h142l-21 -74h-141l-47 -177h-19l47 177h-194l-47 -177h-20zM195 244h194l42 157h-194z" />
    <glyph glyph-name="dollar" unicode="$" horiz-adv-x="444" 
d="M213 -135v133c-96 0 -192 48 -192 139c0 37 26 70 62 70c30 0 51 -24 51 -53c0 -28 -25 -50 -54 -50c-17 0 -37 12 -27 -16c15 -43 96 -77 160 -74v273c-90 37 -171 81 -171 199c0 80 59 159 171 162v73h16v-73c98 -4 162 -38 162 -117c0 -35 -21 -60 -52 -60
c-27 0 -50 22 -50 49c0 28 19 48 48 51c17 2 30 -9 20 10c-15 28 -61 49 -128 50v-255c160 -69 187 -116 187 -210c0 -98 -81 -164 -187 -168v-133h-16zM213 382v249c-81 -2 -123 -57 -123 -114c0 -75 53 -106 123 -135zM229 14c102 4 140 67 140 123c0 65 -36 102 -140 144
v-267z" />
    <glyph glyph-name="percent" unicode="%" horiz-adv-x="633" 
d="M161 360c-55 0 -139 54 -139 148s84 148 139 148s139 -54 139 -148s-84 -148 -139 -148zM124 -6l362 659h19l-362 -659h-19zM472 -8c-55 0 -139 54 -139 148s84 148 139 148s139 -54 139 -148s-84 -148 -139 -148zM161 370c48 0 70 53 70 138s-22 136 -70 136
s-70 -51 -70 -136s23 -138 70 -138zM472 2c48 0 70 53 70 138s-22 136 -70 136s-70 -51 -70 -136s23 -138 70 -138z" />
    <glyph glyph-name="ampersand" unicode="&#x26;" horiz-adv-x="666" 
d="M240 -10c-109 0 -180 77 -180 182c0 98 53 164 162 225c-18 59 -21 94 -21 120c0 110 63 177 145 177c67 0 108 -40 108 -100c0 -58 -37 -104 -165 -177c12 -32 28 -69 52 -120c18 -38 55 -113 96 -174c42 55 70 127 70 197c0 54 -33 66 -90 67v14h228v-14
c-65 -3 -91 -19 -110 -87c-11 -40 -37 -123 -87 -192c32 -46 67 -80 99 -80c51 0 81 41 84 123h13c0 -100 -48 -159 -125 -159c-45 0 -84 21 -120 60c-41 -37 -91 -62 -159 -62zM284 431c96 60 117 102 117 162c0 36 -17 87 -58 87c-52 0 -82 -63 -82 -122
c0 -40 6 -83 23 -127zM271 23c42 0 83 17 114 45c-35 44 -70 106 -107 185c-22 47 -40 93 -51 129c-74 -49 -95 -102 -95 -174c0 -103 55 -185 139 -185z" />
    <glyph glyph-name="quotesingle" unicode="'" horiz-adv-x="200" 
d="M92 410l-36 196c-7 39 -2 78 44 78c45 0 51 -39 44 -78l-37 -196h-15z" />
    <glyph glyph-name="parenleft" unicode="(" horiz-adv-x="304" 
d="M263 -143c-138 97 -220 245 -220 420s82 323 220 420v-13c-94 -95 -142 -233 -142 -407s38 -302 142 -407v-13z" />
    <glyph glyph-name="parenright" unicode=")" horiz-adv-x="304" 
d="M41 -143v13c104 105 142 233 142 407s-48 312 -142 407v13c138 -97 220 -245 220 -420s-82 -323 -220 -420z" />
    <glyph glyph-name="asterisk" unicode="*" horiz-adv-x="459" 
d="M121 358c-9 6 -6 26 10 46c17 22 61 63 88 101c-45 15 -104 22 -130 30c-27 8 -39 21 -36 30c3 10 20 14 47 4c26 -10 78 -38 123 -52c0 47 -12 105 -12 133c0 27 8 43 18 43s18 -16 18 -43c0 -28 -12 -86 -12 -133c45 14 97 43 123 52c25 9 45 7 47 -4
c2 -9 -9 -22 -36 -30c-26 -8 -85 -15 -130 -30c28 -38 71 -79 88 -101c16 -20 19 -40 11 -46c-7 -5 -24 2 -40 25s-41 76 -69 114c-28 -38 -53 -91 -69 -114c-15 -21 -32 -30 -39 -25z" />
    <glyph glyph-name="plus" unicode="+" horiz-adv-x="466" 
d="M224 126v199h-183v21h183v199h20v-199h182v-21h-182v-199h-20z" />
    <glyph glyph-name="comma" unicode="," horiz-adv-x="211" 
d="M54 -166l-10 11c69 57 100 119 100 149c0 26 -18 6 -41 6c-31 0 -55 22 -55 53s24 54 55 54s61 -26 61 -90c0 -56 -36 -120 -110 -183z" />
    <glyph glyph-name="hyphen" unicode="-" horiz-adv-x="279" 
d="M24 200v57h231v-57h-231z" />
    <glyph glyph-name="hyphen" unicode="&#xad;" horiz-adv-x="279" 
d="M24 200v57h231v-57h-231z" />
    <glyph glyph-name="period" unicode="." horiz-adv-x="212" 
d="M106 -7c-32 0 -57 25 -57 57s25 57 57 57s57 -25 57 -57s-25 -57 -57 -57z" />
    <glyph glyph-name="slash" unicode="/" horiz-adv-x="356" 
d="M1 -85l305 774h20l-306 -774h-19z" />
    <glyph glyph-name="zero" unicode="0" horiz-adv-x="514" 
d="M256 -16c-112 0 -218 134 -218 340s109 339 221 339s217 -133 217 -339s-109 -340 -220 -340zM259 -2c84 0 124 111 124 326s-44 325 -127 325c-85 0 -125 -110 -125 -325s44 -326 128 -326z" />
    <glyph glyph-name="one" unicode="1" horiz-adv-x="308" 
d="M23 0v15h37c43 0 60 12 60 57v450c0 45 -17 57 -60 57h-37v15c109 8 148 38 165 73h12v-595c0 -45 16 -57 59 -57h29v-15h-265z" />
    <glyph glyph-name="two" unicode="2" horiz-adv-x="437" 
d="M26 0v29c42 124 155 255 177 277c78 79 106 118 106 196c0 97 -46 140 -104 140c-59 0 -127 -42 -138 -96c-3 -15 5 -25 10 -21c9 7 18 11 32 11c27 0 50 -22 50 -53c0 -29 -23 -53 -56 -53c-34 0 -61 31 -61 77c0 93 82 154 179 154c83 0 180 -49 180 -158
c0 -114 -80 -158 -167 -227c-63 -50 -132 -116 -172 -205h226c89 0 96 38 108 124h12l-9 -195h-373z" />
    <glyph glyph-name="three" unicode="3" horiz-adv-x="429" 
d="M196 -13c-92 0 -177 58 -177 147c0 45 25 74 61 74c32 0 54 -21 54 -53c0 -30 -24 -47 -51 -47c-15 0 -24 6 -32 6c-5 0 -8 -2 -7 -10c4 -53 78 -102 147 -102c85 0 124 60 124 168c0 106 -42 153 -129 153c-11 0 -29 -5 -39 -5c-13 0 -24 3 -24 15s8 16 26 16
c9 0 28 -5 37 -5c83 0 117 61 117 157c0 92 -38 144 -115 144c-50 0 -112 -31 -127 -88c-4 -15 3 -19 6 -16s14 8 23 8c32 0 50 -21 50 -49c0 -27 -22 -49 -50 -49c-32 0 -55 28 -55 65c0 82 72 146 169 146c106 0 187 -61 187 -163c0 -79 -59 -145 -174 -164c0 0 1 -1 0 -1
c112 -15 186 -67 186 -171c0 -102 -93 -176 -207 -176z" />
    <glyph glyph-name="four" unicode="4" horiz-adv-x="468" 
d="M192 0v15h31c40 0 57 12 57 56v89h-264v16l317 487h23v-482h88v-21h-88v-89c0 -44 17 -56 57 -56h23v-15h-244zM42 181h238v365z" />
    <glyph glyph-name="five" unicode="5" horiz-adv-x="450" 
d="M203 -14c-97 0 -173 58 -173 144c0 44 28 72 62 72c32 0 53 -21 53 -51c0 -31 -25 -57 -59 -51c-21 4 -29 0 -26 -12c11 -47 70 -86 140 -86c101 0 128 78 128 196c0 112 -43 179 -127 179c-39 0 -81 -15 -97 -31c0 -39 -11 -55 -24 -52c-9 2 -12 12 -9 25
c3 12 8 21 17 31l11 302l9 4c59 -19 112 -27 164 -27c40 0 92 9 123 28l7 -9c-50 -67 -109 -99 -200 -99c-30 0 -66 4 -88 9l-10 -193c22 17 70 30 116 30c104 0 196 -62 196 -192c0 -133 -96 -217 -213 -217z" />
    <glyph glyph-name="six" unicode="6" horiz-adv-x="466" 
d="M243 -15c-125 0 -200 117 -200 307c0 199 98 369 249 369c83 0 128 -50 128 -98c0 -38 -26 -59 -54 -59c-33 0 -50 22 -50 48c0 24 13 37 22 43c15 10 30 8 30 17c0 23 -54 34 -76 34c-134 0 -164 -157 -161 -337c28 58 83 85 132 85c106 0 174 -84 174 -191
c0 -132 -91 -218 -194 -218zM244 0c78 0 103 86 103 197c0 153 -58 179 -97 179c-62 0 -121 -70 -121 -183c0 -106 37 -193 115 -193z" />
    <glyph glyph-name="seven" unicode="7" horiz-adv-x="450" 
d="M212 -14c-35 0 -50 41 -50 88c0 111 91 320 226 500h-211c-92 0 -115 -6 -137 -153h-12l18 226h376v-50c-119 -175 -175 -293 -175 -427c0 -50 12 -91 12 -118c0 -39 -14 -66 -47 -66z" />
    <glyph glyph-name="eight" unicode="8" horiz-adv-x="461" 
d="M229 -15c-99 0 -205 60 -205 159c0 84 59 140 141 184c-80 44 -120 89 -120 169c0 103 92 166 192 166c93 0 180 -52 180 -140c0 -72 -71 -131 -125 -162c96 -50 145 -94 145 -197c0 -111 -105 -179 -208 -179zM270 373c61 39 86 95 86 144c0 98 -63 131 -130 131
c-79 0 -132 -53 -132 -115c0 -71 72 -105 139 -142c12 -7 25 -12 37 -18zM236 0c72 0 154 48 154 133c0 59 -23 102 -156 161c-18 8 -35 16 -50 24c-70 -50 -96 -102 -96 -175c0 -106 79 -143 148 -143z" />
    <glyph glyph-name="nine" unicode="9" horiz-adv-x="466" 
d="M178 -13c-83 0 -127 54 -127 101c0 33 20 60 52 60s52 -23 52 -54c0 -21 -10 -34 -25 -45c-8 -6 -16 -10 -16 -16c-1 -21 35 -31 63 -31c136 0 167 157 162 340c-28 -53 -77 -86 -129 -86c-105 0 -176 71 -176 195c0 128 90 212 193 212c125 0 200 -117 200 -307
c0 -208 -105 -369 -249 -369zM224 273c68 0 116 86 116 184s-32 193 -111 193c-78 0 -106 -98 -106 -196c0 -107 27 -181 101 -181z" />
    <glyph glyph-name="colon" unicode=":" horiz-adv-x="248" 
d="M124 319c-32 0 -57 25 -57 57s25 57 57 57s57 -25 57 -57s-25 -57 -57 -57zM124 -7c-32 0 -57 25 -57 57s25 57 57 57s57 -25 57 -57s-25 -57 -57 -57z" />
    <glyph glyph-name="semicolon" unicode=";" horiz-adv-x="248" 
d="M124 319c-32 0 -57 25 -57 57s25 57 57 57s57 -25 57 -57s-25 -57 -57 -57zM71 -166l-10 11c69 57 100 119 100 149c0 26 -18 6 -41 6c-31 0 -55 22 -55 53s24 54 55 54s61 -26 61 -90c0 -56 -36 -120 -110 -183z" />
    <glyph glyph-name="less" unicode="&#x3c;" horiz-adv-x="489" 
d="M435 136l-381 180v15l381 180v-22l-349 -165l349 -165v-23z" />
    <glyph glyph-name="equal" unicode="=" horiz-adv-x="489" 
d="M63 415v22h364v-22h-364zM63 214v22h364v-22h-364z" />
    <glyph glyph-name="greater" unicode="&#x3e;" horiz-adv-x="489" 
d="M54 136v23l349 165l-349 165v22l381 -180v-15z" />
    <glyph glyph-name="question" unicode="?" horiz-adv-x="405" 
d="M179 197v18c0 72 4 95 70 203c28 45 37 86 37 127c0 83 -38 134 -97 134c-64 0 -114 -43 -117 -76c-2 -20 6 -3 27 -3c23 0 50 -16 50 -54c0 -27 -22 -50 -51 -50c-33 0 -57 26 -57 68c0 73 68 129 157 129c93 0 169 -53 169 -155c0 -57 -34 -103 -76 -149
c-69 -78 -98 -112 -98 -177v-15h-14zM187 -7c-32 0 -57 25 -57 57s25 57 57 57s57 -25 57 -57s-25 -57 -57 -57z" />
    <glyph glyph-name="at" unicode="@" horiz-adv-x="844" 
d="M439 -154c-199 0 -393 123 -393 381c0 244 199 423 412 423c183 0 340 -113 340 -313c0 -164 -100 -283 -218 -283c-54 0 -92 35 -97 85h-4c-41 -54 -78 -85 -142 -85c-63 0 -110 50 -110 142c0 123 101 253 209 253c61 0 89 -44 102 -92h5l14 87h76l-75 -283
c-14 -53 -2 -85 42 -85c87 0 180 112 180 261c0 189 -143 298 -328 298c-196 0 -388 -178 -388 -407c0 -251 186 -365 378 -365c114 0 206 43 278 98l10 -16c-77 -56 -166 -99 -291 -99zM373 89c86 0 142 132 142 230c0 65 -22 106 -66 106c-82 0 -141 -153 -141 -239
c0 -70 20 -97 65 -97z" />
    <glyph glyph-name="A" unicode="A" horiz-adv-x="647" 
d="M-2 0v15c56 8 74 41 100 111l213 577h22l226 -617c21 -57 46 -68 90 -71v-15h-266v15h29c38 0 59 17 59 37c0 18 -5 37 -20 79l-34 94h-260l-22 -61c-10 -28 -22 -62 -22 -98c0 -33 19 -51 56 -51h19v-15h-190zM162 240h250l-125 354z" />
    <glyph glyph-name="B" unicode="B" horiz-adv-x="580" 
d="M10 0v15h29c46 0 63 13 63 60v533c0 47 -17 60 -63 60h-29v16h268c150 0 250 -50 250 -161c0 -92 -76 -145 -181 -166v-3c126 -21 204 -73 204 -175c0 -106 -108 -179 -261 -179h-280zM185 359h88c103 0 162 56 162 158c0 99 -58 152 -166 152h-20c-46 0 -64 -12 -64 -59
v-251zM249 15h42c124 0 167 73 167 161c0 97 -52 168 -177 168h-96v-270c0 -47 18 -59 64 -59z" />
    <glyph glyph-name="C" unicode="C" horiz-adv-x="586" 
d="M312 -16c-134 0 -279 137 -279 354c0 221 147 356 279 356c51 0 97 -22 136 -48c11 -7 25 -11 34 -11c15 0 26 13 37 59h12l8 -270h-15c-38 169 -121 254 -215 254c-122 0 -178 -139 -178 -336c0 -190 64 -338 191 -338c112 0 186 100 209 246h20
c-24 -169 -112 -266 -239 -266z" />
    <glyph glyph-name="D" unicode="D" horiz-adv-x="636" 
d="M10 0v15h29c46 0 63 13 63 60v534c0 47 -17 60 -63 60h-29v15h274c172 0 319 -126 319 -340c0 -231 -149 -344 -321 -344h-272zM249 15h36c154 0 225 103 225 325c0 214 -73 329 -226 329h-35c-46 0 -64 -12 -64 -59v-536c0 -47 18 -59 64 -59z" />
    <glyph glyph-name="E" unicode="E" horiz-adv-x="595" 
d="M10 0v15h29c46 0 63 13 63 61v532c0 48 -17 61 -63 61h-29v15h505l10 -246h-13c-21 151 -57 231 -200 231h-63c-46 0 -64 -12 -64 -60v-246h51c98 0 126 61 127 144h13v-311h-13c-1 84 -28 152 -127 152h-51v-273c0 -48 18 -60 64 -60h82c141 0 172 98 199 252h13
l-17 -267h-516z" />
    <glyph glyph-name="F" unicode="F" horiz-adv-x="550" 
d="M10 0v15h29c46 0 63 12 63 60v534c0 48 -17 60 -63 60h-29v15h497l8 -246h-13c-21 151 -59 231 -199 231h-54c-46 0 -64 -12 -64 -60v-253h42c101 0 123 56 127 144h13v-312h-13c-5 83 -25 153 -127 153h-42v-266c0 -48 18 -60 64 -60h45v-15h-284z" />
    <glyph glyph-name="G" unicode="G" horiz-adv-x="617" 
d="M312 -9c-138 0 -279 141 -279 347c0 217 145 356 279 356c51 0 92 -20 131 -46c11 -7 21 -13 39 -13c15 0 31 18 39 62h11l8 -264h-15c-42 157 -123 245 -216 245c-122 0 -178 -164 -178 -336c0 -175 65 -333 192 -333c88 0 138 65 138 133v83c0 49 -18 61 -63 61h-33v15
h241v-15h-7c-45 0 -63 -12 -63 -61v-234h-11c-13 40 -33 59 -50 59c-11 0 -24 -6 -35 -13c-41 -28 -69 -46 -128 -46z" />
    <glyph glyph-name="H" unicode="H" horiz-adv-x="660" 
d="M10 0v15h29c46 0 63 12 63 60v534c0 48 -17 60 -63 60h-29v15h267v-15h-28c-46 0 -64 -12 -64 -60v-255h290v255c0 48 -18 60 -63 60h-29v15h267v-15h-29c-46 0 -63 -12 -63 -60v-534c0 -48 17 -60 63 -60h29v-15h-267v15h29c45 0 63 12 63 60v264h-290v-264
c0 -48 18 -60 64 -60h28v-15h-267z" />
    <glyph glyph-name="I" unicode="I" horiz-adv-x="304" 
d="M15 0v15h32c46 0 63 12 63 60v534c0 48 -17 60 -63 60h-32v15h274v-15h-31c-45 0 -63 -12 -63 -60v-534c0 -48 18 -60 63 -60h31v-15h-274z" />
    <glyph glyph-name="J" unicode="J" horiz-adv-x="447" 
d="M161 -10c-85 0 -143 46 -143 122c0 50 29 84 69 84c32 0 52 -21 52 -52s-24 -53 -49 -53c-20 0 -32 8 -35 10c-8 6 -13 -2 -13 -14c0 -45 52 -82 107 -82c84 0 114 68 114 172v432c0 48 -17 60 -63 60h-40v15h278v-15h-28c-46 0 -64 -12 -64 -60v-406
c0 -145 -81 -213 -185 -213z" />
    <glyph glyph-name="K" unicode="K" horiz-adv-x="650" 
d="M10 0v15h29c46 0 63 12 63 60v534c0 48 -17 60 -63 60h-29v15h267v-15h-28c-46 0 -64 -12 -64 -60v-325l218 240c56 62 60 78 60 99c0 31 -32 46 -77 46h-10v15h245v-15c-57 0 -82 -22 -128 -73l-166 -180l229 -339c28 -41 45 -62 89 -62h12v-15h-255v15h23
c31 0 45 9 45 27c0 8 -4 19 -14 33l-187 278l-84 -93v-185c0 -48 18 -60 64 -60h28v-15h-267z" />
    <glyph glyph-name="L" unicode="L" horiz-adv-x="545" 
d="M10 0v15h29c46 0 63 12 63 60v534c0 48 -17 60 -63 60h-29v15h284v-15h-45c-46 0 -64 -12 -64 -60v-534c0 -48 18 -60 64 -60h45c162 0 185 90 200 252h16l-17 -267h-483z" />
    <glyph glyph-name="M" unicode="M" horiz-adv-x="790" 
d="M359 -12l-234 627h-2v-476c0 -99 20 -124 96 -124h4v-15h-220v15h12c65 0 87 25 87 124v469c0 48 -17 61 -63 61h-29v15h184l206 -576l209 576h171v-15h-28c-45 0 -64 -12 -64 -60v-533c0 -48 19 -61 64 -61h28v-15h-267v15h30c45 0 62 13 62 61v539h-1l-229 -627h-16z
" />
    <glyph glyph-name="N" unicode="N" horiz-adv-x="696" 
d="M570 -14l-441 598v-446c0 -99 21 -123 97 -123h4v-15h-223v15h13c66 0 88 24 88 123v477c-15 21 -57 52 -109 54v15h160l416 -565v426c0 99 -21 124 -97 124h-4v15h223v-15h-12c-66 0 -89 -25 -89 -124v-559h-26z" />
    <glyph glyph-name="O" unicode="O" horiz-adv-x="626" 
d="M312 -16c-134 0 -279 146 -279 356c0 211 147 360 281 360c133 0 279 -148 279 -356s-139 -360 -281 -360zM314 0c140 0 181 155 181 340s-43 344 -183 344s-181 -155 -181 -340s43 -344 183 -344z" />
    <glyph glyph-name="P" unicode="P" horiz-adv-x="543" 
d="M10 0v15h29c46 0 63 12 63 60v534c0 48 -17 60 -63 60h-29v15h274c145 0 245 -58 245 -181c0 -131 -116 -192 -259 -192h-85v-236c0 -48 18 -60 64 -60h45v-15h-284zM185 326h88c147 0 160 100 160 173c0 82 -15 170 -154 170h-30c-46 0 -64 -12 -64 -60v-283z" />
    <glyph glyph-name="Q" unicode="Q" horiz-adv-x="626" 
d="M501 -192c-71 0 -106 66 -99 197c-26 -13 -57 -21 -90 -21c-134 0 -279 146 -279 356c0 211 147 360 281 360c133 0 279 -148 279 -356c0 -143 -61 -247 -143 -309c29 -125 50 -145 82 -145c28 0 52 33 54 113h15c0 -110 -29 -195 -100 -195zM275 3l1 3
c-53 21 -73 65 -73 107c0 63 46 104 104 104c86 0 123 -73 134 -146c37 62 54 160 54 267c0 187 -43 346 -183 346s-181 -155 -181 -342c0 -182 43 -315 144 -339zM333 2c28 0 50 8 70 24c8 136 -47 173 -96 173c-50 0 -86 -33 -86 -86c0 -66 50 -111 112 -111z" />
    <glyph glyph-name="R" unicode="R" horiz-adv-x="615" 
d="M509 -9c-57 0 -107 28 -122 161c-18 160 -47 172 -134 172h-68v-248c0 -47 18 -61 64 -61h33v-15h-272v15h29c47 0 63 14 63 61v533c0 47 -16 60 -63 60h-29v15h266c150 1 250 -51 250 -172c0 -100 -75 -160 -189 -181v-3c52 -21 92 -54 121 -138
c38 -111 55 -135 89 -135c18 0 39 20 38 95h15c8 -107 -34 -159 -91 -159zM185 339h95c123 0 154 87 154 170c0 77 -18 160 -160 160h-25c-46 0 -64 -11 -64 -59v-271z" />
    <glyph glyph-name="S" unicode="S" horiz-adv-x="526" 
d="M312 -11c-85 0 -132 26 -167 44c-19 10 -32 18 -48 18s-29 -20 -38 -61h-13l-7 271h15c35 -189 162 -256 262 -256c76 0 134 52 134 136c0 91 -79 127 -183 159c-106 33 -222 64 -222 209c0 105 80 185 182 185c56 0 98 -16 139 -45c13 -9 23 -17 40 -17
c16 0 27 16 40 61h13l7 -269h-15c-39 188 -139 255 -222 255c-80 0 -132 -60 -132 -132c0 -71 26 -113 180 -157c143 -41 220 -88 220 -211c0 -116 -82 -190 -185 -190z" />
    <glyph glyph-name="T" unicode="T" horiz-adv-x="597" 
d="M148 0v15h46c45 0 63 12 63 60v594h-26c-141 0 -171 -98 -196 -252h-14l13 267h531l11 -267h-14c-24 154 -55 252 -196 252h-26v-594c0 -48 17 -60 63 -60h45v-15h-300z" />
    <glyph glyph-name="U" unicode="U" horiz-adv-x="674" 
d="M334 -10c-173 0 -237 101 -237 237v381c0 48 -17 61 -63 61h-29v15h267v-15h-28c-46 0 -64 -13 -64 -61v-407c0 -114 61 -188 185 -188c116 0 181 92 181 197v333c0 99 -20 126 -97 126h-3v15h221v-15h-12c-66 0 -88 -27 -88 -126v-322c0 -146 -89 -231 -233 -231z" />
    <glyph glyph-name="V" unicode="V" horiz-adv-x="665" 
d="M324 -19l-228 617c-19 51 -37 68 -90 71v15h263v-15h-28c-38 0 -57 -17 -57 -37c0 -18 4 -40 13 -66l170 -481l163 449c12 33 23 68 23 92c0 32 -31 43 -63 43h-18v15h190v-15c-55 -8 -66 -20 -96 -99l-222 -589h-20z" />
    <glyph glyph-name="W" unicode="W" horiz-adv-x="941" 
d="M291 -19l-184 600c-20 67 -32 85 -94 88v15h235v-15h-9c-38 0 -55 -15 -55 -35c0 -18 3 -37 12 -68l138 -466l125 388c1 0 -31 101 -31 101c-18 58 -41 77 -91 80v15h249v-15h-29c-38 0 -51 -17 -51 -37c0 -18 3 -36 12 -66l141 -472l139 432c12 38 20 73 20 97
c0 28 -22 46 -59 46h-18v15h189v-15c-56 -8 -73 -35 -96 -102l-196 -586h-20l-149 479l-157 -479h-21z" />
    <glyph glyph-name="X" unicode="X" horiz-adv-x="638" 
d="M7 0v15c63 5 85 28 132 99l146 219l-177 274c-27 42 -40 62 -83 62h-6v15h238v-15h-21c-30 0 -47 -9 -47 -27c0 -8 6 -20 14 -33l134 -212l100 159c23 37 32 61 32 79c0 26 -18 34 -51 34h-25v15h204v-15c-62 -3 -69 -12 -127 -100l-124 -186l196 -305
c26 -41 41 -63 84 -63h5v-15h-241v15h23c30 0 48 9 48 27c0 8 -5 20 -13 33l-154 244l-122 -192c-33 -52 -33 -65 -33 -76c0 -25 18 -36 60 -36h17v-15h-209z" />
    <glyph glyph-name="Y" unicode="Y" horiz-adv-x="640" 
d="M182 0v15h38c45 0 63 21 63 70v194l-196 328c-23 38 -42 62 -86 62h-6v15h244v-15h-25c-27 0 -45 -11 -45 -30c0 -8 4 -18 11 -30l178 -302l132 234c26 46 31 68 31 85c0 26 -21 43 -58 43h-16v15h198v-15c-70 -10 -90 -58 -134 -133l-144 -246v-205c0 -49 17 -70 62 -70
h38v-15h-285z" />
    <glyph glyph-name="Z" unicode="Z" horiz-adv-x="574" 
d="M21 0v15l424 654h-170c-149 0 -180 -80 -201 -231h-14l9 246h470v-15l-424 -654h214c148 0 172 99 198 253h14l-17 -268h-503z" />
    <glyph glyph-name="bracketleft" unicode="[" horiz-adv-x="304" 
d="M65 -130v814h202v-14h-131v-786h131v-14h-202z" />
    <glyph glyph-name="backslash" unicode="\" horiz-adv-x="356" 
d="M336 -85l-306 774h20l305 -774h-19z" />
    <glyph glyph-name="bracketright" unicode="]" horiz-adv-x="304" 
d="M37 -130v14h130v786h-130v14h202v-814h-202z" />
    <glyph glyph-name="asciicircum" unicode="^" horiz-adv-x="459" 
d="M70 407l-11 6l141 274h59l141 -274l-11 -6l-160 189z" />
    <glyph glyph-name="underscore" unicode="_" horiz-adv-x="422" 
d="M-2 -106v15h425v-15h-425z" />
    <glyph glyph-name="grave" unicode="`" 
d="M307 474l-133 74c-30 17 -38 34 -38 50c0 17 16 34 37 34c18 0 37 -10 54 -33l87 -118z" />
    <glyph glyph-name="a" unicode="a" horiz-adv-x="431" 
d="M135 -11c-64 0 -113 32 -113 96c0 85 76 130 264 174v29c0 96 -38 129 -98 129c-54 0 -100 -23 -100 -41c0 -3 1 -4 5 -4c20 0 42 -19 42 -44c0 -26 -20 -46 -45 -46c-26 0 -45 19 -45 48c0 52 55 101 162 101c80 0 150 -29 150 -147v-205c0 -42 12 -55 26 -55
c24 0 34 25 35 80h14c-2 -95 -35 -113 -76 -113c-39 0 -75 22 -70 94h-2c-19 -52 -79 -96 -149 -96zM175 24c49 0 111 36 111 147v72c-153 -31 -181 -84 -181 -141c0 -45 24 -78 70 -78z" />
    <glyph glyph-name="b" unicode="b" horiz-adv-x="466" 
d="M46 -18c10 57 13 127 13 188v444c0 46 -10 57 -54 57h-17v14l141 15v-217c0 -77 -3 -157 -3 -157h2c38 66 77 103 142 103c87 0 172 -94 172 -218c0 -138 -92 -221 -175 -221c-68 0 -104 38 -138 99h-2l-68 -107h-13zM256 6c59 0 102 56 102 203c0 110 -26 204 -100 204
c-68 0 -130 -83 -130 -203c0 -112 56 -204 128 -204z" />
    <glyph glyph-name="c" unicode="c" horiz-adv-x="401" 
d="M213 -15c-100 0 -189 86 -189 222c0 123 99 226 216 226c78 0 135 -54 135 -112c0 -34 -22 -55 -50 -55c-27 0 -46 23 -46 47c0 21 13 40 36 46c12 3 21 -2 21 6c0 18 -35 52 -98 52c-90 0 -127 -85 -127 -205c0 -110 44 -193 135 -193c60 0 100 32 130 72l10 -7
c-34 -57 -96 -99 -173 -99z" />
    <glyph glyph-name="d" unicode="d" horiz-adv-x="476" 
d="M196 -10c-83 0 -172 83 -172 219c0 124 79 220 176 220c60 0 107 -42 138 -103h3c-2 28 -3 88 -3 151v136c0 46 -11 57 -55 57h-25v14l151 15v-624c0 -45 9 -58 53 -58h8v-14l-132 -15l4 112h-3c-33 -61 -75 -110 -143 -110zM211 6c52 0 127 72 127 204
c0 149 -83 204 -126 204c-82 0 -104 -93 -104 -202c0 -111 27 -206 103 -206z" />
    <glyph glyph-name="e" unicode="e" horiz-adv-x="417" 
d="M214 -15c-115 0 -190 85 -190 222c0 135 94 226 194 226c80 0 172 -62 172 -191c0 -3 -1 -25 -2 -30h-282c0 -110 44 -195 130 -195c77 0 116 39 149 87l11 -8c-37 -62 -95 -111 -182 -111zM106 228h150c40 0 51 13 51 45c0 80 -28 145 -92 145c-70 0 -106 -75 -109 -190
z" />
    <glyph glyph-name="f" unicode="f" horiz-adv-x="282" 
d="M25 0v14h8c44 0 54 11 54 56v333h-62v15h62v69c0 114 54 211 162 211c60 0 93 -34 93 -77c0 -33 -22 -52 -49 -52s-44 17 -44 43c0 17 8 29 16 37c6 6 11 11 11 17c0 10 -14 20 -33 20c-68 0 -84 -72 -84 -171v-97h102v-15h-102v-333c0 -45 10 -56 54 -56h19v-14h-207z
" />
    <glyph glyph-name="g" unicode="g" horiz-adv-x="457" 
d="M204 -206c-109 0 -199 32 -199 98c0 56 58 104 162 105c-70 8 -129 25 -129 70c0 35 33 58 71 81c-42 27 -74 76 -74 129c0 92 76 156 170 156c51 0 92 -15 128 -53c14 23 37 53 71 53c30 0 53 -19 53 -49c0 -21 -15 -40 -37 -40s-34 19 -34 39c0 13 -2 20 -10 20
c-10 0 -21 -12 -32 -33c20 -30 30 -61 30 -93c0 -91 -76 -157 -169 -157c-28 0 -60 10 -83 21c-21 -13 -36 -27 -36 -48s30 -36 133 -37c91 -1 204 -18 204 -123c0 -85 -96 -139 -219 -139zM205 134c72 0 89 80 89 143s-17 143 -89 143c-73 0 -89 -80 -89 -143
s16 -143 89 -143zM210 -192c100 0 177 45 177 101c0 47 -51 81 -176 81c-115 0 -147 -53 -147 -97c0 -64 81 -85 146 -85z" />
    <glyph glyph-name="h" unicode="h" horiz-adv-x="479" 
d="M15 0v14h7c41 0 54 10 54 56v543c0 46 -10 58 -54 58h-9v14l133 15v-265l-5 -132h2c24 72 82 124 155 124c81 0 118 -50 118 -149v-208c0 -45 10 -56 55 -56h2v-14h-193v14h10c45 0 55 11 55 56v233c0 70 -30 92 -70 92c-73 0 -128 -74 -128 -161v-164
c0 -45 10 -56 54 -56h10v-14h-196z" />
    <glyph glyph-name="i" unicode="i" horiz-adv-x="223" 
d="M103 531c-30 0 -55 25 -55 55s25 55 55 55s55 -25 55 -55s-25 -55 -55 -55zM15 0v14h8c44 0 54 11 54 56v278c0 46 -10 57 -54 57h-8v13l133 8v-356c0 -45 10 -56 54 -56h8v-14h-195z" />
    <glyph glyph-name="j" unicode="j" horiz-adv-x="214" 
d="M104 531c-30 0 -55 25 -55 55s25 55 55 55s55 -25 55 -55s-25 -55 -55 -55zM14 -205c-58 -1 -98 29 -98 78c0 29 22 51 49 51c26 0 42 -19 42 -43c0 -15 -8 -25 -16 -32s-17 -12 -17 -21c0 -14 21 -22 39 -21c32 1 64 13 64 130v409c0 47 -10 58 -54 58h-17v14l143 9
v-455c0 -89 -40 -175 -135 -177z" />
    <glyph glyph-name="k" unicode="k" horiz-adv-x="474" 
d="M17 0v14h5c44 0 54 11 54 56v544c0 46 -10 57 -54 57h-9v14l134 15v-525l151 162c20 21 26 31 26 44c0 15 -18 24 -51 26v11h176v-11c-58 -6 -72 -20 -109 -57l-82 -84c0 1 145 -204 145 -204c23 -32 32 -45 72 -48v-14h-186v13c32 3 43 12 43 23c0 6 -2 11 -13 27
l-108 155l-64 -64v-84c0 -45 10 -56 55 -56h6v-14h-191z" />
    <glyph glyph-name="l" unicode="l" horiz-adv-x="216" 
d="M13 0v14h4c45 0 55 12 55 60v537c0 48 -10 60 -55 60h-8v14l134 15v-626c0 -48 10 -60 54 -60h8v-14h-192z" />
    <glyph glyph-name="m" unicode="m" horiz-adv-x="735" 
d="M13 0v14h7c44 0 54 11 54 56v279c0 45 -10 57 -54 57h-7v12l133 8l-5 -123h2c26 78 87 124 152 124c76 0 106 -48 114 -113c31 70 86 113 149 113c81 0 115 -50 115 -149v-208c0 -45 10 -56 55 -56h2v-14h-193v14h10c45 0 55 11 55 56v233c0 70 -27 92 -67 92
c-73 0 -125 -80 -125 -162v-163c0 -45 10 -56 55 -56h9v-14h-200v14h10c45 0 55 11 55 56v233c0 70 -27 92 -67 92c-72 0 -125 -77 -125 -162v-163c0 -45 10 -56 54 -56h10v-14h-198z" />
    <glyph glyph-name="n" unicode="n" horiz-adv-x="478" 
d="M13 0v14h7c44 0 54 11 54 56v279c0 45 -10 57 -54 57h-7v12l133 8l-5 -123h2c27 81 90 124 155 124c81 0 118 -50 118 -149v-208c0 -45 10 -56 55 -56h2v-14h-193v14h10c45 0 55 11 55 56v233c0 70 -30 92 -70 92c-73 0 -128 -73 -128 -162v-163c0 -45 10 -56 54 -56h10
v-14h-198z" />
    <glyph glyph-name="o" unicode="o" horiz-adv-x="439" 
d="M220 -15c-94 0 -196 98 -196 225c0 130 102 223 196 223s195 -91 195 -221c0 -127 -101 -227 -195 -227zM220 -1c83 0 111 95 111 210c0 116 -30 210 -111 210s-111 -92 -111 -208c0 -115 28 -212 111 -212z" />
    <glyph glyph-name="p" unicode="p" horiz-adv-x="474" 
d="M1 -204v14h12c44 0 54 11 54 57v481c0 46 -10 57 -54 57h-7v13l130 8l-3 -102h2c32 62 75 105 140 105c82 0 175 -85 175 -219c0 -132 -91 -220 -179 -220c-68 0 -110 47 -137 108h-1s4 -62 4 -125v-106c0 -46 10 -57 54 -57h23v-14h-213zM263 6c77 0 103 94 103 202
c0 104 -24 205 -101 205c-49 0 -129 -58 -129 -204c0 -103 55 -203 127 -203z" />
    <glyph glyph-name="q" unicode="q" horiz-adv-x="461" 
d="M259 -204v14h24c44 0 55 11 55 57v73c0 104 4 159 4 159h-3c-30 -69 -72 -109 -143 -109c-80 0 -172 85 -172 218s88 221 176 221c62 0 108 -43 138 -103h3l70 110l13 -1c-13 -53 -17 -126 -17 -185v-383c0 -46 10 -57 54 -57h12v-14h-214zM212 6c72 0 126 106 126 204
c0 130 -76 203 -127 203c-76 0 -103 -94 -103 -203c0 -115 27 -204 104 -204z" />
    <glyph glyph-name="r" unicode="r" horiz-adv-x="365" 
d="M13 0v14h7c44 0 54 11 54 56v280c0 45 -12 56 -54 56h-7v12l133 8l-7 -169h2c31 109 81 174 147 174c51 0 80 -30 80 -65c0 -39 -22 -59 -50 -59c-25 0 -45 16 -45 41c0 22 12 32 21 40c5 4 8 7 8 12c0 8 -10 10 -22 10c-72 0 -133 -142 -133 -221v-119
c0 -45 10 -56 54 -56h23v-14h-211z" />
    <glyph glyph-name="s" unicode="s" horiz-adv-x="394" 
d="M221 -10c-62 0 -111 35 -135 35c-15 0 -28 -12 -36 -34h-10v170h9c17 -98 97 -157 176 -157c59 0 101 34 101 81c0 45 -31 62 -132 91c-88 25 -149 48 -149 135c0 72 54 117 130 117c58 0 84 -26 115 -26c16 0 29 8 36 25h10v-152h-9c-16 82 -73 139 -157 139
c-46 0 -83 -30 -83 -74c0 -47 39 -62 123 -84c109 -29 158 -60 158 -139c0 -80 -61 -127 -147 -127z" />
    <glyph glyph-name="t" unicode="t" horiz-adv-x="304" 
d="M182 -13c-71 0 -115 41 -115 128v288h-68v12c64 11 117 55 127 184h13v-180h135v-16h-135v-293c0 -63 23 -94 68 -94c41 0 74 45 78 133h14c0 -102 -45 -162 -117 -162z" />
    <glyph glyph-name="u" unicode="u" horiz-adv-x="472" 
d="M182 -10c-79 0 -121 46 -121 142v216c0 44 -10 57 -54 57h-9v13l134 8v-312c0 -71 27 -99 74 -99c62 0 124 88 124 172v160c0 46 -10 58 -54 58h-20v13l146 8v-350c0 -45 11 -58 55 -58h7v-13l-133 -15l5 124h-2c-26 -68 -84 -124 -152 -124z" />
    <glyph glyph-name="v" unicode="v" horiz-adv-x="442" 
d="M215 -20l-148 360c-19 45 -31 62 -72 65v13h200v-13c-40 -3 -51 -13 -52 -29c-1 -15 4 -34 11 -52l96 -255l89 230c9 24 19 49 19 68c0 26 -17 35 -55 38v13h144v-13c-41 -3 -54 -26 -70 -65l-148 -360h-14z" />
    <glyph glyph-name="w" unicode="w" horiz-adv-x="637" 
d="M205 -20l-137 359c-17 43 -33 63 -73 66v13h194v-13c-35 -3 -50 -13 -51 -29c-1 -13 3 -28 11 -50l90 -257l82 212l-23 70c-11 35 -22 48 -62 54v13h185v-13c-34 -3 -52 -13 -53 -29c-1 -13 4 -28 11 -51l79 -252l79 226c9 26 16 49 16 68c0 26 -18 35 -55 38v13h144v-13
c-40 -3 -53 -27 -68 -66l-136 -359h-14l-93 274l-113 -274h-13z" />
    <glyph glyph-name="x" unicode="x" horiz-adv-x="455" 
d="M8 0v13c43 3 60 14 105 72l89 116l-121 166c-19 26 -27 36 -66 39v12h190v-12c-24 -2 -42 -9 -42 -20c0 -8 2 -15 13 -31l75 -111l69 95c11 15 20 29 20 43s-21 22 -55 24v12h153v-12c-43 -3 -63 -25 -102 -74l-77 -99l133 -181c20 -27 28 -35 59 -39v-13h-183v13
c25 2 42 8 42 19c0 7 -3 15 -14 31l-86 126l-81 -111c-18 -24 -20 -31 -20 -40c0 -14 21 -23 61 -25v-13h-162z" />
    <glyph glyph-name="y" unicode="y" horiz-adv-x="446" 
d="M87 -208c-55 0 -84 34 -84 75c0 31 21 53 51 53c24 0 41 -21 41 -42c0 -18 -7 -28 -14 -35c-6 -6 -11 -9 -11 -17c0 -10 11 -17 26 -17c46 0 77 63 106 133l13 31l-150 364c-18 45 -32 65 -73 68v13h201v-13c-35 -3 -51 -14 -52 -30c-1 -15 4 -32 12 -53l99 -262l90 236
c9 23 19 51 19 70c0 26 -17 36 -55 39v13h148v-13c-44 -3 -55 -27 -71 -68l-161 -394c-50 -123 -88 -151 -135 -151z" />
    <glyph glyph-name="z" unicode="z" horiz-adv-x="401" 
d="M17 0v10l274 395h-90c-93 0 -130 -47 -156 -152h-10l11 165h328v-8l-275 -397h114c105 0 138 62 156 161h10l-11 -174h-351z" />
    <glyph glyph-name="braceleft" unicode="{" horiz-adv-x="397" 
d="M342 -130c-118 0 -205 33 -205 142c0 39 18 86 18 126c0 77 -38 132 -129 132v14c91 0 129 55 129 132c0 40 -18 87 -18 126c0 109 87 142 205 142h18v-14c-101 0 -147 -46 -147 -112c0 -45 16 -88 16 -133c0 -99 -55 -132 -153 -146v-4c98 -10 153 -52 153 -147
c0 -45 -16 -87 -16 -132c0 -66 46 -112 147 -112v-14h-18z" />
    <glyph glyph-name="bar" unicode="|" horiz-adv-x="221" 
d="M102 -204v893h17v-893h-17z" />
    <glyph glyph-name="braceright" unicode="}" horiz-adv-x="397" 
d="M37 -130v14c101 0 147 46 147 112c0 45 -16 87 -16 132c0 95 55 137 153 147v4c-98 14 -153 47 -153 146c0 45 16 88 16 133c0 66 -46 112 -147 112v14h18c118 0 205 -33 205 -142c0 -39 -18 -86 -18 -126c0 -77 38 -132 129 -132v-14c-91 0 -129 -55 -129 -132
c0 -40 18 -87 18 -126c0 -109 -87 -142 -205 -142h-18z" />
    <glyph glyph-name="asciitilde" unicode="~" horiz-adv-x="339" 
d="M42 163l-9 3c14 71 36 107 87 107c40 0 90 -20 121 -20c27 0 42 5 56 42l9 -3c-13 -71 -35 -108 -87 -108c-39 0 -91 21 -121 21c-27 0 -42 -6 -56 -42z" />
    <glyph glyph-name="Adieresis" unicode="&#xc4;" horiz-adv-x="647" 
d="M-2 0v15c56 8 74 41 100 111l213 577h22l226 -617c21 -57 46 -68 90 -71v-15h-266v15h29c38 0 59 17 59 37c0 18 -5 37 -20 79l-34 94h-260l-22 -61c-10 -28 -22 -62 -22 -98c0 -33 19 -51 56 -51h19v-15h-190zM162 240h250l-125 354zM406 729c-30 0 -53 25 -53 53
s23 53 53 53c28 0 53 -25 53 -53s-25 -53 -53 -53zM236 729c-27 0 -53 25 -53 53s26 53 53 53c29 0 53 -25 53 -53s-24 -53 -53 -53z" />
    <glyph glyph-name="Aring" unicode="&#xc5;" horiz-adv-x="647" 
d="M-2 0v15c56 8 74 41 100 111l207 561c-39 7 -68 42 -68 83c0 47 37 85 84 85s84 -38 84 -85c0 -41 -28 -75 -66 -83l220 -601c21 -57 46 -68 90 -71v-15h-266v15h29c38 0 59 17 59 37c0 18 -5 35 -20 79l-34 94h-260l-22 -61c-10 -30 -22 -62 -22 -98
c0 -33 19 -51 56 -51h19v-15h-190zM321 702c38 0 58 30 58 68c0 40 -20 68 -58 68c-36 0 -58 -28 -58 -68c0 -38 22 -68 58 -68zM162 240h250l-125 354z" />
    <glyph glyph-name="Ccedilla" unicode="&#xc7;" horiz-adv-x="586" 
d="M326 -203c-39 0 -75 13 -106 37l8 13c23 -17 53 -29 84 -29s49 20 49 51s-17 52 -41 52c-10 0 -14 -1 -22 -3v67c-130 9 -265 144 -265 353c0 221 147 356 279 356c51 0 97 -22 136 -48c11 -7 25 -11 34 -11c15 0 26 13 37 59h12l8 -270h-15c-38 169 -121 254 -215 254
c-122 0 -178 -139 -178 -336c0 -190 64 -338 191 -338c112 0 186 100 209 246h20c-23 -165 -107 -261 -228 -266h-10v-47c4 1 15 3 29 3c47 0 79 -26 79 -66c0 -52 -40 -77 -95 -77z" />
    <glyph glyph-name="Eacute" unicode="&#xc9;" horiz-adv-x="595" 
d="M10 0v15h29c46 0 63 13 63 61v532c0 48 -17 61 -63 61h-29v15h505l10 -246h-13c-21 151 -57 231 -200 231h-63c-46 0 -64 -12 -64 -60v-246h51c98 0 126 61 127 144h13v-311h-13c-1 84 -28 152 -127 152h-51v-273c0 -48 18 -60 64 -60h82c141 0 172 98 199 252h13
l-17 -267h-516zM254 727l-8 7l88 118c17 23 35 33 54 33c21 0 37 -17 37 -34c0 -16 -8 -33 -38 -50z" />
    <glyph glyph-name="Ntilde" unicode="&#xd1;" horiz-adv-x="696" 
d="M570 -14l-441 598v-446c0 -99 21 -123 97 -123h4v-15h-223v15h13c66 0 88 24 88 123v477c-15 21 -57 52 -109 54v15h160l416 -565v426c0 99 -21 124 -97 124h-4v15h223v-15h-12c-66 0 -89 -25 -89 -124v-559h-26zM244 724l-9 2c15 66 36 97 84 96c36 -1 93 -24 121 -25
c21 -1 30 10 43 40l8 -2c-15 -67 -36 -99 -83 -98c-37 1 -93 25 -121 26c-21 1 -31 -12 -43 -39z" />
    <glyph glyph-name="Odieresis" unicode="&#xd6;" horiz-adv-x="626" 
d="M312 -16c-134 0 -279 146 -279 356c0 211 147 360 281 360c133 0 279 -148 279 -356s-139 -360 -281 -360zM314 0c140 0 181 155 181 340s-43 344 -183 344s-181 -155 -181 -340s43 -344 183 -344zM399 729c-30 0 -53 25 -53 53s23 53 53 53c28 0 53 -25 53 -53
s-25 -53 -53 -53zM229 729c-27 0 -53 25 -53 53s26 53 53 53c29 0 53 -25 53 -53s-24 -53 -53 -53z" />
    <glyph glyph-name="Udieresis" unicode="&#xdc;" horiz-adv-x="674" 
d="M334 -10c-173 0 -237 101 -237 237v381c0 48 -17 61 -63 61h-29v15h267v-15h-28c-46 0 -64 -13 -64 -61v-407c0 -114 61 -188 185 -188c116 0 181 92 181 197v333c0 99 -20 126 -97 126h-3v15h221v-15h-12c-66 0 -88 -27 -88 -126v-322c0 -146 -89 -231 -233 -231z
M434 729c-30 0 -53 25 -53 53s23 53 53 53c28 0 53 -25 53 -53s-25 -53 -53 -53zM264 729c-27 0 -53 25 -53 53s26 53 53 53c29 0 53 -25 53 -53s-24 -53 -53 -53z" />
    <glyph glyph-name="aacute" unicode="&#xe1;" horiz-adv-x="431" 
d="M135 -11c-64 0 -113 32 -113 96c0 85 76 130 264 174v29c0 96 -38 129 -98 129c-54 0 -100 -23 -100 -41c0 -3 1 -4 5 -4c20 0 42 -19 42 -44c0 -26 -20 -46 -45 -46c-26 0 -45 19 -45 48c0 52 55 101 162 101c80 0 150 -29 150 -147v-205c0 -42 12 -55 26 -55
c24 0 34 25 35 80h14c-2 -95 -35 -113 -76 -113c-39 0 -75 22 -70 94h-2c-19 -52 -79 -96 -149 -96zM175 24c49 0 111 36 111 147v72c-153 -31 -181 -84 -181 -141c0 -45 24 -78 70 -78zM156 474l-8 7l88 118c17 23 35 33 54 33c21 0 37 -17 37 -34c0 -16 -8 -33 -38 -50z
" />
    <glyph glyph-name="agrave" unicode="&#xe0;" horiz-adv-x="431" 
d="M135 -11c-64 0 -113 32 -113 96c0 85 76 130 264 174v29c0 96 -38 129 -98 129c-54 0 -100 -23 -100 -41c0 -3 1 -4 5 -4c20 0 42 -19 42 -44c0 -26 -20 -46 -45 -46c-26 0 -45 19 -45 48c0 52 55 101 162 101c80 0 150 -29 150 -147v-205c0 -42 12 -55 26 -55
c24 0 34 25 35 80h14c-2 -95 -35 -113 -76 -113c-39 0 -75 22 -70 94h-2c-19 -52 -79 -96 -149 -96zM175 24c49 0 111 36 111 147v72c-153 -31 -181 -84 -181 -141c0 -45 24 -78 70 -78zM258 474l-133 74c-30 17 -38 34 -38 50c0 17 16 34 37 34c18 0 37 -10 54 -33l87 -118
z" />
    <glyph glyph-name="acircumflex" unicode="&#xe2;" horiz-adv-x="431" 
d="M135 -11c-64 0 -113 32 -113 96c0 85 76 130 264 174v29c0 96 -38 129 -98 129c-54 0 -100 -23 -100 -41c0 -3 1 -4 5 -4c20 0 42 -19 42 -44c0 -26 -20 -46 -45 -46c-26 0 -45 19 -45 48c0 52 55 101 162 101c80 0 150 -29 150 -147v-205c0 -42 12 -55 26 -55
c24 0 34 25 35 80h14c-2 -95 -35 -113 -76 -113c-39 0 -75 22 -70 94h-2c-19 -52 -79 -96 -149 -96zM175 24c49 0 111 36 111 147v72c-153 -31 -181 -84 -181 -141c0 -45 24 -78 70 -78zM101 468l-7 4l89 143h51l89 -143l-6 -4l-109 76z" />
    <glyph glyph-name="adieresis" unicode="&#xe4;" horiz-adv-x="431" 
d="M135 -11c-64 0 -113 32 -113 96c0 85 76 130 264 174v29c0 96 -38 129 -98 129c-54 0 -100 -23 -100 -41c0 -3 1 -4 5 -4c20 0 42 -19 42 -44c0 -26 -20 -46 -45 -46c-26 0 -45 19 -45 48c0 52 55 101 162 101c80 0 150 -29 150 -147v-205c0 -42 12 -55 26 -55
c24 0 34 25 35 80h14c-2 -95 -35 -113 -76 -113c-39 0 -75 22 -70 94h-2c-19 -52 -79 -96 -149 -96zM175 24c49 0 111 36 111 147v72c-153 -31 -181 -84 -181 -141c0 -45 24 -78 70 -78zM292 476c-30 0 -53 25 -53 53s23 53 53 53c28 0 53 -25 53 -53s-25 -53 -53 -53z
M122 476c-27 0 -53 25 -53 53s26 53 53 53c29 0 53 -25 53 -53s-24 -53 -53 -53z" />
    <glyph glyph-name="atilde" unicode="&#xe3;" horiz-adv-x="431" 
d="M135 -11c-64 0 -113 32 -113 96c0 85 76 130 264 174v29c0 96 -38 129 -98 129c-54 0 -100 -23 -100 -41c0 -3 1 -4 5 -4c20 0 42 -19 42 -44c0 -26 -20 -46 -45 -46c-26 0 -45 19 -45 48c0 52 55 101 162 101c80 0 150 -29 150 -147v-205c0 -42 12 -55 26 -55
c24 0 34 25 35 80h14c-2 -95 -35 -113 -76 -113c-39 0 -75 22 -70 94h-2c-19 -52 -79 -96 -149 -96zM175 24c49 0 111 36 111 147v72c-153 -31 -181 -84 -181 -141c0 -45 24 -78 70 -78zM91 471l-9 2c15 66 36 97 84 96c36 -1 93 -24 121 -25c21 -1 30 10 43 40l8 -2
c-15 -67 -36 -99 -83 -98c-37 1 -93 25 -121 26c-21 1 -31 -12 -43 -39z" />
    <glyph glyph-name="aring" unicode="&#xe5;" horiz-adv-x="431" 
d="M135 -11c-64 0 -113 32 -113 96c0 85 76 130 264 174v29c0 96 -38 129 -98 129c-54 0 -100 -23 -100 -41c0 -3 1 -4 5 -4c20 0 42 -19 42 -44c0 -26 -20 -46 -45 -46c-26 0 -45 19 -45 48c0 52 55 101 162 101c80 0 150 -29 150 -147v-205c0 -42 12 -55 26 -55
c24 0 34 25 35 80h14c-2 -95 -35 -113 -76 -113c-39 0 -75 22 -70 94h-2c-19 -52 -79 -96 -149 -96zM175 24c49 0 111 36 111 147v72c-153 -31 -181 -84 -181 -141c0 -45 24 -78 70 -78zM207 469c-47 0 -84 38 -84 85s37 85 84 85c48 0 84 -39 84 -85c0 -47 -37 -85 -84 -85
zM207 486c38 0 58 30 58 68c0 40 -20 68 -58 68c-36 0 -58 -28 -58 -68c0 -38 22 -68 58 -68z" />
    <glyph glyph-name="ccedilla" unicode="&#xe7;" horiz-adv-x="401" 
d="M220 -203c-39 0 -77 13 -106 37l8 13c30 -22 53 -29 84 -29c30 0 49 20 49 51s-17 52 -41 52c-10 0 -14 -1 -22 -3v68c-90 9 -172 93 -172 221c0 123 99 226 216 226c78 0 135 -54 135 -112c0 -39 -24 -55 -52 -55c-27 0 -45 25 -45 49c0 21 12 40 34 45c12 3 24 -3 24 5
c0 18 -35 52 -98 52c-90 0 -127 -85 -127 -205c0 -110 48 -193 135 -193c60 0 100 32 130 72l10 -7c-34 -57 -96 -99 -173 -99h-2v-48c4 1 15 3 29 3c47 0 79 -26 79 -66c0 -52 -40 -77 -95 -77z" />
    <glyph glyph-name="eacute" unicode="&#xe9;" horiz-adv-x="417" 
d="M214 -15c-115 0 -190 85 -190 222c0 135 94 226 194 226c80 0 172 -62 172 -191c0 -3 -1 -25 -2 -30h-282c0 -110 44 -195 130 -195c77 0 116 39 149 87l11 -8c-37 -62 -95 -111 -182 -111zM106 228h150c40 0 51 13 51 45c0 80 -28 145 -92 145c-70 0 -106 -75 -109 -190
zM171 474l-8 7l88 118c17 23 35 33 54 33c21 0 37 -17 37 -34c0 -16 -8 -33 -38 -50z" />
    <glyph glyph-name="egrave" unicode="&#xe8;" horiz-adv-x="417" 
d="M214 -15c-115 0 -190 85 -190 222c0 135 94 226 194 226c80 0 172 -62 172 -191c0 -3 -1 -25 -2 -30h-282c0 -110 44 -195 130 -195c77 0 116 39 149 87l11 -8c-37 -62 -95 -111 -182 -111zM106 228h150c40 0 51 13 51 45c0 80 -28 145 -92 145c-70 0 -106 -75 -109 -190
zM277 474l-133 74c-30 17 -38 34 -38 50c0 17 16 34 37 34c18 0 37 -10 54 -33l87 -118z" />
    <glyph glyph-name="ecircumflex" unicode="&#xea;" horiz-adv-x="417" 
d="M214 -15c-115 0 -190 85 -190 222c0 135 94 226 194 226c80 0 172 -62 172 -191c0 -3 -1 -25 -2 -30h-282c0 -110 44 -195 130 -195c77 0 116 39 149 87l11 -8c-37 -62 -95 -111 -182 -111zM106 228h150c40 0 51 13 51 45c0 80 -28 145 -92 145c-70 0 -106 -75 -109 -190
zM110 468l-7 4l89 143h51l89 -143l-6 -4l-109 76z" />
    <glyph glyph-name="edieresis" unicode="&#xeb;" horiz-adv-x="417" 
d="M214 -15c-115 0 -190 85 -190 222c0 135 94 226 194 226c80 0 172 -62 172 -191c0 -3 -1 -25 -2 -30h-282c0 -110 44 -195 130 -195c77 0 116 39 149 87l11 -8c-37 -62 -95 -111 -182 -111zM106 228h150c40 0 51 13 51 45c0 80 -28 145 -92 145c-70 0 -106 -75 -109 -190
zM297 476c-30 0 -53 25 -53 53s23 53 53 53c28 0 53 -25 53 -53s-25 -53 -53 -53zM127 476c-27 0 -53 25 -53 53s26 53 53 53c29 0 53 -25 53 -53s-24 -53 -53 -53z" />
    <glyph glyph-name="iacute" unicode="&#xed;" horiz-adv-x="223" 
d="M15 0v14h8c44 0 54 11 54 56v278c0 46 -10 57 -54 57h-8v13l133 8v-356c0 -45 10 -56 54 -56h8v-14h-195zM44 474l-8 7l88 118c17 23 35 33 54 33c21 0 37 -17 37 -34c0 -16 -8 -33 -38 -50z" />
    <glyph glyph-name="igrave" unicode="&#xec;" horiz-adv-x="223" 
d="M15 0v14h8c44 0 54 11 54 56v278c0 46 -10 57 -54 57h-8v13l133 8v-356c0 -45 10 -56 54 -56h8v-14h-195zM147 474l-133 74c-30 17 -38 34 -38 50c0 17 16 34 37 34c18 0 37 -10 54 -33l87 -118z" />
    <glyph glyph-name="icircumflex" unicode="&#xee;" horiz-adv-x="223" 
d="M15 0v14h8c44 0 54 11 54 56v278c0 46 -10 57 -54 57h-8v13l133 8v-356c0 -45 10 -56 54 -56h8v-14h-195zM-6 468l-7 4l89 143h51l89 -143l-6 -4l-109 76z" />
    <glyph glyph-name="idieresis" unicode="&#xef;" horiz-adv-x="223" 
d="M15 0v14h8c44 0 54 11 54 56v278c0 46 -10 57 -54 57h-8v13l133 8v-356c0 -45 10 -56 54 -56h8v-14h-195zM187 476c-30 0 -53 25 -53 53s23 53 53 53c28 0 53 -25 53 -53s-25 -53 -53 -53zM17 476c-27 0 -53 25 -53 53s26 53 53 53c29 0 53 -25 53 -53s-24 -53 -53 -53z
" />
    <glyph glyph-name="ntilde" unicode="&#xf1;" horiz-adv-x="478" 
d="M13 0v14h7c44 0 54 11 54 56v279c0 45 -10 57 -54 57h-7v12l133 8l-5 -123h2c27 81 90 124 155 124c81 0 118 -50 118 -149v-208c0 -45 10 -56 55 -56h2v-14h-193v14h10c45 0 55 11 55 56v233c0 70 -30 92 -70 92c-73 0 -128 -73 -128 -162v-163c0 -45 10 -56 54 -56h10
v-14h-198zM133 471l-9 2c15 66 36 97 84 96c36 -1 93 -24 121 -25c21 -1 30 10 43 40l8 -2c-15 -67 -36 -99 -83 -98c-37 1 -93 25 -121 26c-21 1 -31 -12 -43 -39z" />
    <glyph glyph-name="oacute" unicode="&#xf3;" horiz-adv-x="439" 
d="M220 -15c-94 0 -196 98 -196 225c0 130 102 223 196 223s195 -91 195 -221c0 -127 -101 -227 -195 -227zM220 -1c83 0 111 95 111 210c0 116 -30 210 -111 210s-111 -92 -111 -208c0 -115 28 -212 111 -212zM176 474l-8 7l88 118c17 23 35 33 54 33c21 0 37 -17 37 -34
c0 -16 -8 -33 -38 -50z" />
    <glyph glyph-name="ograve" unicode="&#xf2;" horiz-adv-x="439" 
d="M220 -15c-94 0 -196 98 -196 225c0 130 102 223 196 223s195 -91 195 -221c0 -127 -101 -227 -195 -227zM220 -1c83 0 111 95 111 210c0 116 -30 210 -111 210s-111 -92 -111 -208c0 -115 28 -212 111 -212zM267 474l-133 74c-30 17 -38 34 -38 50c0 17 16 34 37 34
c18 0 37 -10 54 -33l87 -118z" />
    <glyph glyph-name="ocircumflex" unicode="&#xf4;" horiz-adv-x="439" 
d="M220 -15c-94 0 -196 98 -196 225c0 130 102 223 196 223s195 -91 195 -221c0 -127 -101 -227 -195 -227zM220 -1c83 0 111 95 111 210c0 116 -30 210 -111 210s-111 -92 -111 -208c0 -115 28 -212 111 -212zM109 468l-7 4l89 143h51l89 -143l-6 -4l-109 76z" />
    <glyph glyph-name="odieresis" unicode="&#xf6;" horiz-adv-x="439" 
d="M220 -15c-94 0 -196 98 -196 225c0 130 102 223 196 223s195 -91 195 -221c0 -127 -101 -227 -195 -227zM220 -1c83 0 111 95 111 210c0 116 -30 210 -111 210s-111 -92 -111 -208c0 -115 28 -212 111 -212zM303 476c-30 0 -53 25 -53 53s23 53 53 53c28 0 53 -25 53 -53
s-25 -53 -53 -53zM133 476c-27 0 -53 25 -53 53s26 53 53 53c29 0 53 -25 53 -53s-24 -53 -53 -53z" />
    <glyph glyph-name="otilde" unicode="&#xf5;" horiz-adv-x="439" 
d="M220 -15c-94 0 -196 98 -196 225c0 130 102 223 196 223s195 -91 195 -221c0 -127 -101 -227 -195 -227zM220 -1c83 0 111 95 111 210c0 116 -30 210 -111 210s-111 -92 -111 -208c0 -115 28 -212 111 -212zM101 471l-9 2c15 66 36 97 84 96c36 -1 93 -24 121 -25
c21 -1 30 10 43 40l8 -2c-15 -67 -36 -99 -83 -98c-37 1 -93 25 -121 26c-21 1 -31 -12 -43 -39z" />
    <glyph glyph-name="uacute" unicode="&#xfa;" horiz-adv-x="472" 
d="M182 -10c-79 0 -121 46 -121 142v216c0 44 -10 57 -54 57h-9v13l134 8v-312c0 -71 27 -99 74 -99c62 0 124 88 124 172v160c0 46 -10 58 -54 58h-20v13l146 8v-350c0 -45 11 -58 55 -58h7v-13l-133 -15l5 124h-2c-26 -68 -84 -124 -152 -124zM194 474l-8 7l88 118
c17 23 35 33 54 33c21 0 37 -17 37 -34c0 -16 -8 -33 -38 -50z" />
    <glyph glyph-name="ugrave" unicode="&#xf9;" horiz-adv-x="472" 
d="M182 -10c-79 0 -121 46 -121 142v216c0 44 -10 57 -54 57h-9v13l134 8v-312c0 -71 27 -99 74 -99c62 0 124 88 124 172v160c0 46 -10 58 -54 58h-20v13l146 8v-350c0 -45 11 -58 55 -58h7v-13l-133 -15l5 124h-2c-26 -68 -84 -124 -152 -124zM267 474l-133 74
c-30 17 -38 34 -38 50c0 17 16 34 37 34c18 0 37 -10 54 -33l87 -118z" />
    <glyph glyph-name="ucircumflex" unicode="&#xfb;" horiz-adv-x="472" 
d="M182 -10c-79 0 -121 46 -121 142v216c0 44 -10 57 -54 57h-9v13l134 8v-312c0 -71 27 -99 74 -99c62 0 124 88 124 172v160c0 46 -10 58 -54 58h-20v13l146 8v-350c0 -45 11 -58 55 -58h7v-13l-133 -15l5 124h-2c-26 -68 -84 -124 -152 -124zM112 468l-7 4l89 143h51
l89 -143l-6 -4l-109 76z" />
    <glyph glyph-name="udieresis" unicode="&#xfc;" horiz-adv-x="472" 
d="M182 -10c-79 0 -121 46 -121 142v216c0 44 -10 57 -54 57h-9v13l134 8v-312c0 -71 27 -99 74 -99c62 0 124 88 124 172v160c0 46 -10 58 -54 58h-20v13l146 8v-350c0 -45 11 -58 55 -58h7v-13l-133 -15l5 124h-2c-26 -68 -84 -124 -152 -124zM305 476
c-30 0 -53 25 -53 53s23 53 53 53c28 0 53 -25 53 -53s-25 -53 -53 -53zM135 476c-27 0 -53 25 -53 53s26 53 53 53c29 0 53 -25 53 -53s-24 -53 -53 -53z" />
    <glyph glyph-name="dagger" unicode="&#x2020;" horiz-adv-x="445" 
d="M216 -11c0 164 -21 267 -42 343c24 33 42 75 43 152c-40 -1 -53 -11 -71 -19c-21 -9 -36 -16 -49 -16c-26 0 -43 16 -43 41c0 24 17 40 43 40c13 0 28 -6 49 -16c18 -9 33 -17 71 -18c-1 57 -10 85 -19 105c-9 21 -15 36 -15 49c0 26 15 43 40 43s40 -17 40 -43
c0 -13 -6 -28 -15 -49c-9 -19 -18 -47 -19 -105c39 1 52 10 69 18c21 10 37 16 50 16c25 0 43 -16 43 -40c0 -25 -18 -41 -43 -41c-13 0 -29 7 -50 16c-17 7 -29 18 -69 19c1 -77 19 -120 43 -152c-21 -76 -42 -179 -42 -343h-14z" />
    <glyph glyph-name="degree" unicode="&#xb0;" horiz-adv-x="330" 
d="M165 426c-66 0 -117 51 -117 117s51 117 117 117s117 -51 117 -117s-51 -117 -117 -117zM165 441c57 0 99 44 99 102c0 56 -42 102 -99 102s-99 -45 -99 -102s42 -102 99 -102z" />
    <glyph glyph-name="cent" unicode="&#xa2;" horiz-adv-x="401" 
d="M91 -135l41 139c-64 33 -112 106 -112 207c0 126 99 231 216 231c9 0 17 -1 25 -2l29 98h17l-30 -101c56 -15 94 -60 94 -109c0 -40 -24 -57 -52 -57c-27 0 -45 26 -45 50c0 22 12 41 34 46c13 3 24 -3 24 5c0 15 -21 39 -60 49l-109 -371c20 -20 47 -31 79 -31
c60 0 100 33 130 74l10 -7c-34 -58 -96 -101 -173 -101c-21 0 -42 4 -62 12l-39 -132h-17zM150 64l106 360c-7 1 -14 2 -22 2c-90 0 -127 -87 -127 -210c0 -62 15 -116 43 -152z" />
    <glyph glyph-name="sterling" unicode="&#xa3;" horiz-adv-x="463" 
d="M87 -9c-43 0 -80 30 -80 70c0 51 39 80 90 80c39 0 68 -16 97 -32c7 20 10 41 10 60c0 62 -25 108 -52 151h-116v15h106c-29 45 -57 87 -57 143c0 98 77 183 200 183c94 0 148 -59 148 -120c0 -41 -23 -66 -54 -66c-30 0 -47 23 -47 46c0 22 12 48 49 50c17 1 26 -6 26 4
c0 21 -40 72 -122 72c-69 0 -114 -47 -114 -135c0 -59 26 -112 44 -177h163v-15h-159c8 -32 14 -67 14 -108c0 -39 -7 -79 -21 -113c28 -16 58 -29 98 -29c80 0 114 40 120 134h13c6 -139 -31 -211 -133 -211c-54 0 -88 33 -117 66c-25 -41 -61 -68 -106 -68zM88 4
c40 0 72 30 92 69c-26 29 -50 54 -85 54c-40 0 -73 -22 -73 -61s26 -62 66 -62z" />
    <glyph glyph-name="section" unicode="&#xa7;" horiz-adv-x="495" 
d="M243 -14c-103 0 -135 51 -135 80c0 27 17 48 42 48s43 -16 43 -40c0 -11 -7 -25 -21 -32c-13 -7 -21 -1 -21 -10c0 -10 35 -33 92 -33c54 0 84 34 84 75c0 74 -84 94 -157 126c-56 25 -105 62 -105 128c0 60 53 101 102 112c-40 23 -59 58 -59 108c0 63 57 113 144 113
c103 0 135 -51 135 -80c0 -27 -17 -48 -42 -48s-43 16 -43 40c0 11 7 25 21 32c13 7 21 1 21 10c0 10 -35 33 -94 33c-51 0 -82 -34 -82 -75c0 -52 43 -78 91 -99c77 -34 171 -61 171 -155c0 -58 -46 -97 -102 -112c40 -23 59 -58 59 -108c0 -63 -57 -113 -144 -113z
M305 218c41 5 62 37 62 75c0 51 -36 79 -92 101c-16 6 -53 20 -84 34c-40 -3 -63 -32 -63 -68c0 -56 36 -84 80 -103c35 -15 79 -30 97 -39z" />
    <glyph glyph-name="bullet" unicode="&#x2022;" horiz-adv-x="440" 
d="M220 213c-76 0 -135 58 -135 135c0 76 59 135 135 135s135 -59 135 -135c0 -77 -59 -135 -135 -135z" />
    <glyph glyph-name="paragraph" unicode="&#xb6;" horiz-adv-x="513" 
d="M220 -5v324c-96 12 -173 56 -173 169c0 102 73 159 186 159h222v-15h-80v-637h-16v637h-123v-637h-16z" />
    <glyph glyph-name="germandbls" unicode="&#xdf;" horiz-adv-x="525" 
d="M358 -11c-91 0 -134 45 -134 91c0 33 24 53 51 53s45 -22 45 -44c0 -16 -5 -29 -18 -39c-10 -8 -18 -8 -18 -18c0 -16 29 -30 76 -30c67 0 101 44 101 94c0 40 -15 70 -99 104c-87 35 -126 63 -126 120c0 41 9 61 44 121c19 33 36 62 36 119c0 85 -30 126 -75 126
c-65 0 -82 -74 -82 -170v-516h-134v14h8c45 0 54 12 54 62v327h-62v15h62v68c0 120 59 212 157 212c92 0 135 -57 135 -128c0 -73 -55 -124 -90 -166c-16 -19 -28 -37 -28 -54c0 -27 38 -36 127 -72c101 -41 111 -105 111 -155c0 -80 -59 -134 -141 -134z" />
    <glyph glyph-name="registered" unicode="&#xae;" horiz-adv-x="449" 
d="M225 327c-103 0 -184 80 -184 183s81 183 184 183s184 -80 184 -183s-81 -183 -184 -183zM225 342c95 0 167 73 167 168s-72 168 -167 168s-167 -73 -167 -168s72 -168 167 -168zM300 407c-20 0 -39 14 -42 58c-2 23 -13 43 -32 43h-25v-75c0 -11 4 -13 16 -13h18v-10
h-99v10h11c12 0 17 2 17 13v162c0 11 -5 14 -17 14h-11v11h85c51 0 89 -16 89 -54c0 -27 -30 -50 -67 -53c22 -5 36 -31 43 -48c12 -31 17 -35 28 -35c6 0 14 7 13 34h7c3 -39 -14 -57 -34 -57zM201 519h28c28 0 40 17 40 46c0 28 -14 44 -38 44h-14c-12 0 -16 -3 -16 -14
v-76z" />
    <glyph glyph-name="copyright" unicode="&#xa9;" horiz-adv-x="798" 
d="M399 -16c-201 0 -358 157 -358 358s157 358 358 358c202 0 358 -156 358 -358c0 -201 -157 -358 -358 -358zM399 -1c192 0 342 151 342 343s-150 343 -342 343s-342 -151 -342 -343s150 -343 342 -343zM400 135c-99 0 -184 77 -184 209c0 122 87 210 184 210
c35 0 57 -11 83 -27c15 -9 23 -10 29 -10c12 0 18 10 26 37h9l5 -168h-12c-21 106 -79 157 -143 157c-76 0 -106 -96 -106 -196c0 -118 35 -199 114 -199c83 0 127 62 145 152h12c-17 -108 -77 -165 -162 -165z" />
    <glyph glyph-name="trademark" unicode="&#x2122;" horiz-adv-x="786" 
d="M113 371v12h23c20 0 29 4 29 22v267c-69 0 -97 -34 -106 -115h-9l6 127h270l6 -127h-9c-9 80 -38 115 -107 115v-267c0 -18 10 -22 30 -22h23v-12h-156zM534 367l-107 272v-208c0 -42 9 -48 45 -48h7v-12h-111v12h5c31 0 41 6 41 48v216c0 18 -8 22 -27 22h-16v15h96
l91 -243l88 243h93v-15h-16c-18 0 -27 -4 -27 -22v-242c0 -18 9 -22 27 -22h16v-12h-143v12h19c20 0 29 4 29 22v234l-100 -272h-10z" />
    <glyph glyph-name="acute" unicode="&#xb4;" 
d="M194 474l-8 7l88 118c17 23 35 33 54 33c21 0 37 -17 37 -34c0 -16 -8 -33 -38 -50z" />
    <glyph glyph-name="dieresis" unicode="&#xa8;" 
d="M335 476c-30 0 -53 25 -53 53s23 53 53 53c28 0 53 -25 53 -53s-25 -53 -53 -53zM165 476c-27 0 -53 25 -53 53s26 53 53 53c29 0 53 -25 53 -53s-24 -53 -53 -53z" />
    <glyph glyph-name="notequal" unicode="&#x2260;" horiz-adv-x="542" 
d="M25 0v14h8c44 0 54 12 54 57v332h-62v15h62v59c0 129 70 221 192 221c60 0 99 -21 119 -49c26 30 63 49 111 49c60 0 93 -34 93 -77c0 -33 -22 -52 -49 -52s-44 17 -44 43c0 17 8 29 16 37c6 6 11 11 11 17c0 10 -14 20 -33 20c-68 0 -84 -72 -84 -171v-97h102v-15h-102
v-332c0 -45 10 -57 54 -57h19v-14h-207v14h8c44 0 54 12 54 57v332h-188v-332c0 -45 10 -57 54 -57h24v-14h-212zM159 418h188v69c0 27 3 54 9 78c-20 5 -36 22 -36 45c0 14 7 26 15 34c4 4 7 8 7 13c0 14 -26 27 -67 27c-83 0 -116 -73 -116 -184v-82z" />
    <glyph glyph-name="AE" unicode="&#xc6;" horiz-adv-x="904" 
d="M-21 0v14c56 8 81 45 118 112c0 0 214 362 280 483c14 25 17 31 17 43c0 14 -28 18 -57 18h-23v14h510l10 -246h-13c-21 151 -57 231 -200 231h-63c-46 0 -64 -12 -64 -60v-246h51c98 0 126 60 127 143h13v-310h-13c-1 84 -28 152 -127 152h-51v-273c0 -48 18 -60 64 -60
h82c141 0 172 98 199 252h13l-17 -267h-516v15h29c46 0 63 13 63 61v149h-234l-35 -61c-15 -28 -45 -67 -45 -104c0 -28 18 -45 55 -45h19v-15h-192zM186 240h225v387h-3z" />
    <glyph glyph-name="Oslash" unicode="&#xd8;" horiz-adv-x="628" 
d="M74 -25l61 93c-59 63 -102 159 -102 272c0 211 147 360 281 360c62 0 127 -32 178 -87l64 97h18l-72 -109c54 -63 91 -152 91 -257c0 -208 -139 -360 -281 -360c-57 0 -117 27 -166 74l-54 -83h-18zM165 114l297 453c-28 71 -75 117 -150 117c-140 0 -181 -155 -181 -340
c0 -87 10 -168 34 -230zM314 0c140 0 181 155 181 340c0 78 -8 151 -27 209l-296 -452c29 -59 74 -97 142 -97z" />
    <glyph glyph-name="infinity" unicode="&#x221e;" horiz-adv-x="753" 
d="M25 0v14h8c44 0 54 12 54 57v332h-62v15h62v59c0 129 70 221 192 221c62 0 108 -21 123 -54c30 31 71 54 136 54c89 0 131 -43 131 -82c0 -28 -22 -48 -45 -48c-25 0 -45 15 -45 42c0 17 7 27 15 34c5 4 9 8 9 12c0 13 -25 28 -69 28c-81 0 -116 -73 -116 -184v-82h117
l143 9v-356c0 -45 20 -57 64 -57h18v-14h-216v14h8c44 0 54 12 54 57v275c0 47 -10 57 -54 57h-134v-332c0 -45 10 -57 54 -57h24v-14h-212v14h8c44 0 54 12 54 57v332h-187v-332c0 -45 10 -57 54 -57h24v-14h-212zM159 418h187v69c0 27 4 56 13 78c-25 7 -39 22 -39 45
c0 14 7 26 15 34c4 4 7 8 7 13c0 14 -26 27 -67 27c-85 1 -116 -77 -116 -184v-82z" />
    <glyph glyph-name="plusminus" unicode="&#xb1;" horiz-adv-x="751" 
d="M25 0v14h8c44 0 54 12 54 57v332h-62v15h62v59c0 124 67 221 192 221c89 0 123 -42 125 -57c25 30 67 57 131 57c32 0 60 -5 80 -13l63 15v-625c0 -48 10 -61 54 -61h8v-14h-192v14h4c45 0 55 13 55 61v328h-188v-332c0 -45 10 -57 54 -57h24v-14h-212v14h8
c44 0 54 12 54 57v332h-188v-332c0 -45 10 -57 54 -57h24v-14h-212zM419 418h188v153c-18 6 -27 21 -27 40c0 17 8 28 15 33c5 4 7 8 7 12c0 17 -30 28 -67 28c-82 0 -116 -72 -116 -184v-82zM159 418h188v49c0 35 5 75 16 103c-24 0 -43 21 -43 45c0 14 7 26 15 34
s3 20 -11 27c-12 6 -31 8 -49 8c-96 0 -116 -97 -116 -184v-82z" />
    <glyph glyph-name="lessequal" unicode="&#x2264;" horiz-adv-x="825" 
d="M621 358c-108 0 -192 84 -192 191c0 80 59 144 125 144c43 0 76 -29 76 -62c0 -22 -18 -44 -43 -44s-45 19 -45 41c0 11 5 26 11 32c12 12 9 22 -3 22c-39 0 -81 -38 -81 -106c0 -85 93 -173 179 -173c68 0 106 37 106 76c0 12 -10 15 -22 3c-6 -6 -21 -11 -32 -11
c-22 0 -41 20 -41 45s22 43 44 43c33 0 62 -33 62 -76c0 -66 -65 -125 -144 -125zM204 358c-79 0 -144 59 -144 125c0 43 29 76 62 76c22 0 44 -18 44 -43s-19 -45 -41 -45c-11 0 -26 5 -32 11c-12 12 -22 9 -22 -3c0 -39 38 -76 106 -76c86 0 179 88 179 173
c0 68 -42 106 -81 106c-12 0 -15 -10 -3 -22c6 -6 11 -21 11 -32c0 -22 -20 -41 -45 -41s-43 22 -43 44c0 33 33 62 76 62c66 0 125 -64 125 -144c0 -107 -84 -191 -192 -191zM554 -9c-66 0 -125 64 -125 144c0 107 84 191 192 191c79 0 144 -59 144 -125
c0 -43 -29 -76 -62 -76c-22 0 -44 18 -44 43s19 45 41 45c11 0 26 -5 32 -11c12 -12 22 -9 22 3c0 39 -38 76 -106 76c-86 0 -179 -88 -179 -173c0 -68 42 -106 81 -106c12 0 15 10 3 22c-6 6 -11 21 -11 32c0 22 20 41 45 41s43 -22 43 -44c0 -33 -33 -62 -76 -62zM271 -9
c-43 0 -76 29 -76 62c0 22 18 44 43 44s45 -19 45 -41c0 -11 -5 -26 -11 -32c-12 -12 -9 -22 3 -22c39 0 81 38 81 106c0 85 -93 173 -179 173c-68 0 -106 -37 -106 -76c0 -12 10 -15 22 -3c6 6 21 11 32 11c22 0 41 -20 41 -45s-22 -43 -44 -43c-33 0 -62 33 -62 76
c0 66 65 125 144 125c108 0 192 -84 192 -191c0 -80 -59 -144 -125 -144z" />
    <glyph glyph-name="greaterequal" unicode="&#x2265;" horiz-adv-x="825" 
d="M621 358c-108 0 -192 84 -192 191c0 80 59 144 125 144c43 0 76 -29 76 -62c0 -22 -18 -44 -43 -44s-45 19 -45 41c0 11 5 26 11 32c12 12 9 22 -3 22c-39 0 -81 -38 -81 -106c0 -85 93 -173 179 -173c68 0 106 37 106 76c0 12 -10 15 -22 3c-6 -6 -21 -11 -32 -11
c-22 0 -41 20 -41 45s22 43 44 43c33 0 62 -33 62 -76c0 -66 -65 -125 -144 -125zM204 358c-79 0 -144 59 -144 125c0 43 29 76 62 76c22 0 44 -18 44 -43s-19 -45 -41 -45c-11 0 -26 5 -32 11c-12 12 -22 9 -22 -3c0 -39 38 -76 106 -76c86 0 179 88 179 173
c0 68 -42 106 -81 106c-12 0 -15 -10 -3 -22c6 -6 11 -21 11 -32c0 -22 -20 -41 -45 -41s-43 22 -43 44c0 33 33 62 76 62c66 0 125 -64 125 -144c0 -107 -84 -191 -192 -191zM554 -9c-66 0 -125 64 -125 144c0 107 84 191 192 191c79 0 144 -59 144 -125
c0 -43 -29 -76 -62 -76c-22 0 -44 18 -44 43s19 45 41 45c11 0 26 -5 32 -11c12 -12 22 -9 22 3c0 39 -38 76 -106 76c-86 0 -179 -88 -179 -173c0 -68 42 -106 81 -106c12 0 15 10 3 22c-6 6 -11 21 -11 32c0 22 20 41 45 41s43 -22 43 -44c0 -33 -33 -62 -76 -62zM271 -9
c-43 0 -76 29 -76 62c0 22 18 44 43 44s45 -19 45 -41c0 -11 -5 -26 -11 -32c-12 -12 -9 -22 3 -22c39 0 81 38 81 106c0 85 -93 173 -179 173c-68 0 -106 -37 -106 -76c0 -12 10 -15 22 -3c6 6 21 11 32 11c22 0 41 -20 41 -45s-22 -43 -44 -43c-33 0 -62 33 -62 76
c0 66 65 125 144 125c108 0 192 -84 192 -191c0 -80 -59 -144 -125 -144z" />
    <glyph glyph-name="yen" unicode="&#xa5;" horiz-adv-x="529" 
d="M134 0v14h35c41 0 59 21 59 70v182h-188v16h186l-69 123h-117v16h108l-85 150c-24 42 -39 62 -79 62h-6v14h231v-14h-23c-25 0 -41 -11 -41 -25c0 -10 3 -22 10 -35l141 -262l108 194c17 32 39 75 39 92c0 23 -19 36 -53 36h-15v14h184v-14c-64 -10 -91 -56 -135 -133
l-45 -79h113v-16h-122l-66 -115v-8h188v-16h-188v-182c0 -49 15 -70 57 -70h35v-14h-262z" />
    <glyph glyph-name="mu" unicode="&#xb5;" horiz-adv-x="825" 
d="M621 358c-108 0 -192 84 -192 191c0 80 59 144 125 144c43 0 76 -29 76 -62c0 -22 -18 -44 -43 -44s-45 19 -45 41c0 11 5 26 11 32c12 12 9 22 -3 22c-39 0 -81 -38 -81 -106c0 -85 93 -173 179 -173c68 0 106 37 106 76c0 12 -10 15 -22 3c-6 -6 -21 -11 -32 -11
c-22 0 -41 20 -41 45s22 43 44 43c33 0 62 -33 62 -76c0 -66 -65 -125 -144 -125zM204 358c-79 0 -144 59 -144 125c0 43 29 76 62 76c22 0 44 -18 44 -43s-19 -45 -41 -45c-11 0 -26 5 -32 11c-12 12 -22 9 -22 -3c0 -39 38 -76 106 -76c86 0 179 88 179 173
c0 68 -42 106 -81 106c-12 0 -15 -10 -3 -22c6 -6 11 -21 11 -32c0 -22 -20 -41 -45 -41s-43 22 -43 44c0 33 33 62 76 62c66 0 125 -64 125 -144c0 -107 -84 -191 -192 -191zM554 -9c-66 0 -125 64 -125 144c0 107 84 191 192 191c79 0 144 -59 144 -125
c0 -43 -29 -76 -62 -76c-22 0 -44 18 -44 43s19 45 41 45c11 0 26 -5 32 -11c12 -12 22 -9 22 3c0 39 -38 76 -106 76c-86 0 -179 -88 -179 -173c0 -68 42 -106 81 -106c12 0 15 10 3 22c-6 6 -11 21 -11 32c0 22 20 41 45 41s43 -22 43 -44c0 -33 -33 -62 -76 -62zM271 -9
c-43 0 -76 29 -76 62c0 22 18 44 43 44s45 -19 45 -41c0 -11 -5 -26 -11 -32c-12 -12 -9 -22 3 -22c39 0 81 38 81 106c0 85 -93 173 -179 173c-68 0 -106 -37 -106 -76c0 -12 10 -15 22 -3c6 6 21 11 32 11c22 0 41 -20 41 -45s-22 -43 -44 -43c-33 0 -62 33 -62 76
c0 66 65 125 144 125c108 0 192 -84 192 -191c0 -80 -59 -144 -125 -144z" />
    <glyph glyph-name="mu" unicode="&#x3bc;" horiz-adv-x="825" 
d="M621 358c-108 0 -192 84 -192 191c0 80 59 144 125 144c43 0 76 -29 76 -62c0 -22 -18 -44 -43 -44s-45 19 -45 41c0 11 5 26 11 32c12 12 9 22 -3 22c-39 0 -81 -38 -81 -106c0 -85 93 -173 179 -173c68 0 106 37 106 76c0 12 -10 15 -22 3c-6 -6 -21 -11 -32 -11
c-22 0 -41 20 -41 45s22 43 44 43c33 0 62 -33 62 -76c0 -66 -65 -125 -144 -125zM204 358c-79 0 -144 59 -144 125c0 43 29 76 62 76c22 0 44 -18 44 -43s-19 -45 -41 -45c-11 0 -26 5 -32 11c-12 12 -22 9 -22 -3c0 -39 38 -76 106 -76c86 0 179 88 179 173
c0 68 -42 106 -81 106c-12 0 -15 -10 -3 -22c6 -6 11 -21 11 -32c0 -22 -20 -41 -45 -41s-43 22 -43 44c0 33 33 62 76 62c66 0 125 -64 125 -144c0 -107 -84 -191 -192 -191zM554 -9c-66 0 -125 64 -125 144c0 107 84 191 192 191c79 0 144 -59 144 -125
c0 -43 -29 -76 -62 -76c-22 0 -44 18 -44 43s19 45 41 45c11 0 26 -5 32 -11c12 -12 22 -9 22 3c0 39 -38 76 -106 76c-86 0 -179 -88 -179 -173c0 -68 42 -106 81 -106c12 0 15 10 3 22c-6 6 -11 21 -11 32c0 22 20 41 45 41s43 -22 43 -44c0 -33 -33 -62 -76 -62zM271 -9
c-43 0 -76 29 -76 62c0 22 18 44 43 44s45 -19 45 -41c0 -11 -5 -26 -11 -32c-12 -12 -9 -22 3 -22c39 0 81 38 81 106c0 85 -93 173 -179 173c-68 0 -106 -37 -106 -76c0 -12 10 -15 22 -3c6 6 21 11 32 11c22 0 41 -20 41 -45s-22 -43 -44 -43c-33 0 -62 33 -62 76
c0 66 65 125 144 125c108 0 192 -84 192 -191c0 -80 -59 -144 -125 -144z" />
    <glyph glyph-name="partialdiff" unicode="&#x2202;" horiz-adv-x="617" 
d="M10 0v15h29c46 0 63 17 63 61v532c0 48 -17 61 -63 61h-29v15h278c145 0 239 -56 239 -176c0 -105 -95 -169 -198 -182v-1c68 -16 124 -72 166 -189c31 -87 40 -121 90 -121h22v-15h-167l-36 122c-42 142 -82 201 -185 201h-34v-247c0 -43 18 -61 64 -61h36v-15h-275z
M185 338h80c118 0 169 54 169 169c0 96 -27 162 -173 162h-12c-46 0 -64 -12 -64 -60v-271z" />
    <glyph glyph-name="summation" unicode="&#x2211;" horiz-adv-x="825" 
d="M621 358c-108 0 -192 84 -192 191c0 80 59 144 125 144c43 0 76 -29 76 -62c0 -22 -18 -44 -43 -44s-45 19 -45 41c0 11 5 26 11 32c12 12 9 22 -3 22c-39 0 -81 -38 -81 -106c0 -85 93 -173 179 -173c68 0 106 37 106 76c0 12 -10 15 -22 3c-6 -6 -21 -11 -32 -11
c-22 0 -41 20 -41 45s22 43 44 43c33 0 62 -33 62 -76c0 -66 -65 -125 -144 -125zM204 358c-79 0 -144 59 -144 125c0 43 29 76 62 76c22 0 44 -18 44 -43s-19 -45 -41 -45c-11 0 -26 5 -32 11c-12 12 -22 9 -22 -3c0 -39 38 -76 106 -76c86 0 179 88 179 173
c0 68 -42 106 -81 106c-12 0 -15 -10 -3 -22c6 -6 11 -21 11 -32c0 -22 -20 -41 -45 -41s-43 22 -43 44c0 33 33 62 76 62c66 0 125 -64 125 -144c0 -107 -84 -191 -192 -191zM554 -9c-66 0 -125 64 -125 144c0 107 84 191 192 191c79 0 144 -59 144 -125
c0 -43 -29 -76 -62 -76c-22 0 -44 18 -44 43s19 45 41 45c11 0 26 -5 32 -11c12 -12 22 -9 22 3c0 39 -38 76 -106 76c-86 0 -179 -88 -179 -173c0 -68 42 -106 81 -106c12 0 15 10 3 22c-6 6 -11 21 -11 32c0 22 20 41 45 41s43 -22 43 -44c0 -33 -33 -62 -76 -62zM271 -9
c-43 0 -76 29 -76 62c0 22 18 44 43 44s45 -19 45 -41c0 -11 -5 -26 -11 -32c-12 -12 -9 -22 3 -22c39 0 81 38 81 106c0 85 -93 173 -179 173c-68 0 -106 -37 -106 -76c0 -12 10 -15 22 -3c6 6 21 11 32 11c22 0 41 -20 41 -45s-22 -43 -44 -43c-33 0 -62 33 -62 76
c0 66 65 125 144 125c108 0 192 -84 192 -191c0 -80 -59 -144 -125 -144z" />
    <glyph glyph-name="product" unicode="&#x220f;" horiz-adv-x="798" 
d="M399 -16c-201 0 -358 157 -358 358s157 358 358 358c202 0 358 -156 358 -358c0 -201 -157 -358 -358 -358zM399 -1c192 0 342 151 342 343s-150 343 -342 343s-342 -151 -342 -343s150 -343 342 -343zM222 149v14h16c20 0 37 15 37 35v302c0 20 -9 34 -37 34h-16v14h176
c86 0 144 -31 144 -102c0 -56 -50 -84 -120 -96v-2c30 -12 61 -40 81 -88c25 -61 33 -79 52 -79c11 0 22 11 21 55h14c4 -60 -20 -92 -62 -92c-36 0 -68 18 -74 94c-7 91 -27 105 -78 105h-45v-145c0 -27 20 -35 45 -35h17v-14h-171zM331 357h61c71 0 89 42 89 90
c0 50 -10 87 -93 87h-20c-27 0 -37 -5 -37 -33v-144z" />
    <glyph glyph-name="pi" unicode="&#x3c0;" horiz-adv-x="798" 
d="M399 -16c-201 0 -358 157 -358 358s157 358 358 358c202 0 358 -156 358 -358c0 -201 -157 -358 -358 -358zM399 -1c192 0 342 151 342 343s-150 343 -342 343s-342 -151 -342 -343s150 -343 342 -343zM248 144v14h18c26 0 37 7 37 35v306c0 28 -11 35 -37 35h-18v14h175
c85 0 155 -36 155 -108c0 -76 -80 -117 -163 -117h-50v-130c0 -28 11 -35 38 -35h26v-14h-181zM365 336h47c87 0 96 67 96 100c0 34 -9 101 -93 101h-12c-27 0 -38 -7 -38 -35v-166z" />
    <glyph glyph-name="integral" unicode="&#x222b;" horiz-adv-x="825" 
d="M621 358c-108 0 -192 84 -192 191c0 80 59 144 125 144c43 0 76 -29 76 -62c0 -22 -18 -44 -43 -44s-45 19 -45 41c0 11 5 26 11 32c12 12 9 22 -3 22c-39 0 -81 -38 -81 -106c0 -85 93 -173 179 -173c68 0 106 37 106 76c0 12 -10 15 -22 3c-6 -6 -21 -11 -32 -11
c-22 0 -41 20 -41 45s22 43 44 43c33 0 62 -33 62 -76c0 -66 -65 -125 -144 -125zM204 358c-79 0 -144 59 -144 125c0 43 29 76 62 76c22 0 44 -18 44 -43s-19 -45 -41 -45c-11 0 -26 5 -32 11c-12 12 -22 9 -22 -3c0 -39 38 -76 106 -76c86 0 179 88 179 173
c0 68 -42 106 -81 106c-12 0 -15 -10 -3 -22c6 -6 11 -21 11 -32c0 -22 -20 -41 -45 -41s-43 22 -43 44c0 33 33 62 76 62c66 0 125 -64 125 -144c0 -107 -84 -191 -192 -191zM554 -9c-66 0 -125 64 -125 144c0 107 84 191 192 191c79 0 144 -59 144 -125
c0 -43 -29 -76 -62 -76c-22 0 -44 18 -44 43s19 45 41 45c11 0 26 -5 32 -11c12 -12 22 -9 22 3c0 39 -38 76 -106 76c-86 0 -179 -88 -179 -173c0 -68 42 -106 81 -106c12 0 15 10 3 22c-6 6 -11 21 -11 32c0 22 20 41 45 41s43 -22 43 -44c0 -33 -33 -62 -76 -62zM271 -9
c-43 0 -76 29 -76 62c0 22 18 44 43 44s45 -19 45 -41c0 -11 -5 -26 -11 -32c-12 -12 -9 -22 3 -22c39 0 81 38 81 106c0 85 -93 173 -179 173c-68 0 -106 -37 -106 -76c0 -12 10 -15 22 -3c6 6 21 11 32 11c22 0 41 -20 41 -45s-22 -43 -44 -43c-33 0 -62 33 -62 76
c0 66 65 125 144 125c108 0 192 -84 192 -191c0 -80 -59 -144 -125 -144z" />
    <glyph glyph-name="ordfeminine" unicode="&#xaa;" horiz-adv-x="381" 
d="M141 332c-47 0 -79 27 -79 69c0 67 67 88 181 120v49c0 54 -20 73 -64 73c-42 0 -70 -20 -70 -31c0 -6 5 -4 11 -5c8 -1 14 -3 20 -9s10 -14 10 -24c0 -21 -17 -37 -36 -37c-20 0 -38 12 -38 38c0 48 46 80 120 80c67 0 99 -26 99 -102v-162c0 -22 6 -31 18 -31
c10 0 21 3 25 54h11c-3 -71 -31 -80 -55 -80c-26 0 -50 20 -51 65h-1c-17 -41 -55 -67 -101 -67zM62 250v16h266v-16h-266zM165 361c43 0 78 45 78 103v45c-90 -29 -122 -58 -122 -99c0 -29 16 -49 44 -49z" />
    <glyph glyph-name="ordmasculine" unicode="&#xba;" horiz-adv-x="371" 
d="M185 330c-63 0 -134 67 -134 163c0 98 71 164 134 164c62 0 134 -63 134 -163s-72 -164 -134 -164zM55 250v16h260v-16h-260zM186 341c52 0 70 74 70 152s-19 152 -71 152c-54 0 -70 -73 -70 -151s17 -153 71 -153z" />
    <glyph glyph-name="Omega" unicode="&#x3a9;" horiz-adv-x="489" 
d="M41 314v20h407v-20h-407z" />
    <glyph glyph-name="Omega" unicode="&#x2126;" horiz-adv-x="489" 
d="M41 314v20h407v-20h-407z" />
    <glyph glyph-name="ae" unicode="&#xe6;" horiz-adv-x="668" 
d="M135 -11c-64 0 -113 32 -113 96c0 85 76 130 264 174v29c0 96 -38 129 -98 129c-54 0 -100 -23 -100 -41c0 -5 1 -4 5 -4c20 0 42 -19 42 -44c0 -26 -20 -46 -45 -46c-26 0 -45 19 -45 48c0 52 55 101 162 101c54 0 103 -13 130 -58c36 38 83 60 132 60
c80 0 172 -62 172 -191c0 -3 -1 -25 -2 -30h-282c2 -110 44 -195 130 -195c77 0 116 39 149 87l11 -8c-37 -62 -95 -111 -182 -111c-82 0 -146 44 -173 122h-1c-16 -66 -76 -118 -156 -118zM357 228h150c40 0 51 13 51 45c0 80 -28 145 -92 145c-70 0 -106 -75 -109 -190z
M175 24c37 0 111 36 111 147v72c-153 -31 -181 -84 -181 -141c0 -45 24 -78 70 -78z" />
    <glyph glyph-name="oslash" unicode="&#xf8;" horiz-adv-x="459" 
d="M51 -30l47 69c-43 41 -74 102 -74 171c0 130 102 223 196 223c40 0 81 -16 115 -45l42 60h17l-48 -70c41 -39 69 -97 69 -166c0 -127 -101 -227 -195 -227c-38 0 -78 16 -112 44l-40 -59h-17zM126 80l183 269c-17 43 -45 70 -89 70c-81 0 -111 -92 -111 -208
c0 -49 5 -94 17 -131zM220 -1c83 0 111 95 111 210c0 46 -5 89 -16 124l-183 -269c18 -40 45 -65 88 -65z" />
    <glyph glyph-name="questiondown" unicode="&#xbf;" horiz-adv-x="405" 
d="M231 491v-18c0 -72 -4 -95 -70 -203c-28 -45 -37 -86 -37 -127c0 -83 38 -134 97 -134c64 0 114 43 117 76c2 20 -6 3 -27 3c-23 0 -50 16 -50 54c0 27 22 50 51 50c33 0 57 -26 57 -68c0 -73 -68 -129 -157 -129c-93 0 -169 53 -169 155c0 57 34 103 76 149
c69 78 98 112 98 177v15h14zM223 695c32 0 57 -25 57 -57s-25 -57 -57 -57s-57 25 -57 57s25 57 57 57z" />
    <glyph glyph-name="exclamdown" unicode="&#xa1;" horiz-adv-x="245" 
d="M114 496h13c0 -126 19 -264 35 -342c8 -37 12 -69 12 -87c0 -45 -19 -75 -53 -75s-52 30 -52 75c0 18 5 49 12 87c15 78 33 216 33 342zM121 696c32 0 57 -25 57 -57s-25 -57 -57 -57s-57 25 -57 57s25 57 57 57z" />
    <glyph glyph-name="logicalnot" unicode="&#xac;" horiz-adv-x="825" 
d="M621 358c-108 0 -192 84 -192 191c0 80 59 144 125 144c43 0 76 -29 76 -62c0 -22 -18 -44 -43 -44s-45 19 -45 41c0 11 5 26 11 32c12 12 9 22 -3 22c-39 0 -81 -38 -81 -106c0 -85 93 -173 179 -173c68 0 106 37 106 76c0 12 -10 15 -22 3c-6 -6 -21 -11 -32 -11
c-22 0 -41 20 -41 45s22 43 44 43c33 0 62 -33 62 -76c0 -66 -65 -125 -144 -125zM204 358c-79 0 -144 59 -144 125c0 43 29 76 62 76c22 0 44 -18 44 -43s-19 -45 -41 -45c-11 0 -26 5 -32 11c-12 12 -22 9 -22 -3c0 -39 38 -76 106 -76c86 0 179 88 179 173
c0 68 -42 106 -81 106c-12 0 -15 -10 -3 -22c6 -6 11 -21 11 -32c0 -22 -20 -41 -45 -41s-43 22 -43 44c0 33 33 62 76 62c66 0 125 -64 125 -144c0 -107 -84 -191 -192 -191zM554 -9c-66 0 -125 64 -125 144c0 107 84 191 192 191c79 0 144 -59 144 -125
c0 -43 -29 -76 -62 -76c-22 0 -44 18 -44 43s19 45 41 45c11 0 26 -5 32 -11c12 -12 22 -9 22 3c0 39 -38 76 -106 76c-86 0 -179 -88 -179 -173c0 -68 42 -106 81 -106c12 0 15 10 3 22c-6 6 -11 21 -11 32c0 22 20 41 45 41s43 -22 43 -44c0 -33 -33 -62 -76 -62zM271 -9
c-43 0 -76 29 -76 62c0 22 18 44 43 44s45 -19 45 -41c0 -11 -5 -26 -11 -32c-12 -12 -9 -22 3 -22c39 0 81 38 81 106c0 85 -93 173 -179 173c-68 0 -106 -37 -106 -76c0 -12 10 -15 22 -3c6 6 21 11 32 11c22 0 41 -20 41 -45s-22 -43 -44 -43c-33 0 -62 33 -62 76
c0 66 65 125 144 125c108 0 192 -84 192 -191c0 -80 -59 -144 -125 -144z" />
    <glyph glyph-name="radical" unicode="&#x221a;" horiz-adv-x="544" 
d="M236 -16l-118 221c-28 52 -47 69 -101 72v14h139l103 -208c44 402 142 615 207 615c20 0 38 -13 38 -33c0 -22 -9 -32 -31 -56c-106 -118 -180 -333 -212 -610z" />
    <glyph glyph-name="florin" unicode="&#x192;" horiz-adv-x="388" 
d="M-2 -206c-39 0 -63 28 -63 59c0 25 17 44 39 44c24 0 39 -17 39 -37c0 -27 -19 -32 -19 -42c0 -5 5 -8 17 -8c44 0 56 74 66 193c5 58 13 150 20 256c2 32 8 91 12 123h-79l2 16h80c24 172 84 262 181 262c65 0 88 -46 88 -80c0 -27 -18 -47 -45 -47s-39 19 -39 38
c0 15 9 30 26 37c11 5 17 6 17 12c0 7 -9 27 -49 27c-55 0 -83 -67 -101 -249h107l-2 -16h-107c-4 -38 -8 -87 -11 -122c-28 -364 -94 -466 -179 -466z" />
    <glyph glyph-name="approxequal" unicode="&#x2248;" horiz-adv-x="532" 
d="M90 132l-15 15l176 176l-177 177l15 15l177 -177l177 177l15 -15l-177 -177l176 -176l-15 -15l-176 176z" />
    <glyph glyph-name="Delta" unicode="&#x394;" horiz-adv-x="484" 
d="M25 0v15h8c44 0 54 12 54 57v331h-62v15h62v49c0 136 65 231 192 231c89 0 131 -43 131 -82c0 -28 -22 -48 -45 -48c-25 0 -45 15 -45 42c0 17 7 27 15 34c5 4 9 8 9 12c0 17 -36 28 -69 28c-82 0 -116 -73 -116 -184v-82h117l143 9v-455c0 -89 -40 -175 -135 -177
c-58 -1 -98 29 -98 78c0 29 22 51 49 51c26 0 42 -19 42 -43c0 -15 -8 -25 -16 -32s-17 -12 -17 -21c0 -14 21 -22 39 -21c32 1 64 13 64 130v408c0 47 -10 58 -54 58h-134v-331c0 -45 10 -57 54 -57h24v-15h-212z" />
    <glyph glyph-name="Delta" unicode="&#x2206;" horiz-adv-x="484" 
d="M25 0v15h8c44 0 54 12 54 57v331h-62v15h62v49c0 136 65 231 192 231c89 0 131 -43 131 -82c0 -28 -22 -48 -45 -48c-25 0 -45 15 -45 42c0 17 7 27 15 34c5 4 9 8 9 12c0 17 -36 28 -69 28c-82 0 -116 -73 -116 -184v-82h117l143 9v-455c0 -89 -40 -175 -135 -177
c-58 -1 -98 29 -98 78c0 29 22 51 49 51c26 0 42 -19 42 -43c0 -15 -8 -25 -16 -32s-17 -12 -17 -21c0 -14 21 -22 39 -21c32 1 64 13 64 130v408c0 47 -10 58 -54 58h-134v-331c0 -45 10 -57 54 -57h24v-15h-212z" />
    <glyph glyph-name="guillemotleft" unicode="&#xab;" horiz-adv-x="459" 
d="M406 0l-207 225l207 224h14l-124 -224l124 -225h-14zM225 0l-207 225l207 224h14l-123 -224l123 -225h-14z" />
    <glyph glyph-name="guillemotright" unicode="&#xbb;" horiz-adv-x="459" 
d="M220 0l123 225l-123 224h14l207 -224l-207 -225h-14zM39 0l124 225l-124 224h14l207 -224l-207 -225h-14z" />
    <glyph glyph-name="ellipsis" unicode="&#x2026;" horiz-adv-x="652" 
d="M546 -7c-32 0 -57 25 -57 57s25 57 57 57s57 -25 57 -57s-25 -57 -57 -57zM326 -7c-32 0 -57 25 -57 57s25 57 57 57s57 -25 57 -57s-25 -57 -57 -57zM106 -7c-32 0 -57 25 -57 57s25 57 57 57s57 -25 57 -57s-25 -57 -57 -57z" />
    <glyph glyph-name="nbspace" unicode="&#xa0;" horiz-adv-x="115" 
 />
    <glyph glyph-name="Agrave" unicode="&#xc0;" horiz-adv-x="647" 
d="M-2 0v15c56 8 74 41 100 111l213 577h22l226 -617c21 -57 46 -68 90 -71v-15h-266v15h29c38 0 59 17 59 37c0 18 -5 37 -20 79l-34 94h-260l-22 -61c-10 -28 -22 -62 -22 -98c0 -33 19 -51 56 -51h19v-15h-190zM162 240h250l-125 354zM368 729l-133 74
c-30 17 -38 34 -38 50c0 17 16 34 37 34c18 0 37 -10 54 -33l87 -118z" />
    <glyph glyph-name="Atilde" unicode="&#xc3;" horiz-adv-x="647" 
d="M-2 0v15c56 8 74 41 100 111l213 577h22l226 -617c21 -57 46 -68 90 -71v-15h-266v15h29c38 0 59 17 59 37c0 18 -5 37 -20 79l-34 94h-260l-22 -61c-10 -28 -22 -62 -22 -98c0 -33 19 -51 56 -51h19v-15h-190zM162 240h250l-125 354zM208 724l-9 2c15 66 36 97 84 96
c36 -1 93 -24 121 -25c21 -1 30 10 43 40l8 -2c-15 -67 -36 -99 -83 -98c-37 1 -93 25 -121 26c-21 1 -31 -12 -43 -39z" />
    <glyph glyph-name="Otilde" unicode="&#xd5;" horiz-adv-x="626" 
d="M312 -16c-134 0 -279 146 -279 356c0 211 147 360 281 360c133 0 279 -148 279 -356s-139 -360 -281 -360zM314 0c140 0 181 155 181 340s-43 344 -183 344s-181 -155 -181 -340s43 -344 183 -344zM194 724l-9 2c15 66 36 97 84 96c36 -1 93 -24 121 -25
c21 -1 30 10 43 40l8 -2c-15 -67 -36 -99 -83 -98c-37 1 -93 25 -121 26c-21 1 -31 -12 -43 -39z" />
    <glyph glyph-name="OE" unicode="&#x152;" horiz-adv-x="944" 
d="M875 0h-521c-172 0 -321 113 -321 344c0 214 147 340 319 340h512l10 -246h-13c-21 151 -57 231 -200 231h-63c-46 0 -64 -12 -64 -60v-246h51c98 0 126 61 127 144h13v-311h-13c-1 84 -28 152 -127 152h-51v-273c0 -48 18 -60 64 -60h82c141 0 172 98 199 252h13z
M351 14h36c46 0 64 12 64 59v537c0 47 -18 59 -64 59h-35c-153 0 -226 -122 -226 -329c0 -202 71 -326 225 -326z" />
    <glyph glyph-name="oe" unicode="&#x153;" horiz-adv-x="725" 
d="M220 -15c-94 0 -196 98 -196 225c0 130 102 223 196 223c56 0 114 -32 153 -86c36 54 94 86 153 86c80 0 172 -62 172 -191c0 -3 -1 -25 -2 -30h-282c2 -110 44 -195 130 -195c77 0 116 39 149 87l11 -8c-37 -62 -95 -111 -182 -111c-68 0 -122 30 -155 83
c-38 -51 -94 -83 -147 -83zM414 228h150c40 0 51 13 51 45c0 80 -28 145 -92 145c-70 0 -106 -75 -109 -190zM220 -1c83 0 111 95 111 210c0 116 -30 210 -111 210s-111 -92 -111 -208c0 -115 28 -212 111 -212z" />
    <glyph glyph-name="endash" unicode="&#x2013;" horiz-adv-x="422" 
d="M24 217v24h374v-24h-374z" />
    <glyph glyph-name="emdash" unicode="&#x2014;" horiz-adv-x="844" 
d="M24 217v24h796v-24h-796z" />
    <glyph glyph-name="quotedblleft" unicode="&#x201c;" horiz-adv-x="391" 
d="M276 414c-33 0 -63 26 -63 86c0 61 32 124 110 190l10 -11c-75 -62 -99 -124 -99 -152s18 -8 43 -8c32 0 52 -26 52 -53c0 -30 -20 -52 -53 -52zM115 414c-33 0 -63 26 -63 86c0 61 32 124 110 190l10 -11c-75 -62 -99 -124 -99 -152s18 -8 43 -8c32 0 52 -26 52 -53
c0 -30 -20 -52 -53 -52z" />
    <glyph glyph-name="quotedblright" unicode="&#x201d;" horiz-adv-x="391" 
d="M229 415l-10 11c75 62 99 124 99 152s-18 8 -43 8c-32 0 -52 26 -52 53c0 30 20 52 53 52s63 -26 63 -86c0 -61 -32 -124 -110 -190zM68 415l-10 11c75 62 99 124 99 152s-18 8 -43 8c-32 0 -52 26 -52 53c0 30 20 52 53 52s63 -26 63 -86c0 -61 -32 -124 -110 -190z" />
    <glyph glyph-name="quoteleft" unicode="&#x2018;" horiz-adv-x="230" 
d="M115 416c-33 0 -63 26 -63 86c0 61 32 124 110 190l10 -11c-75 -62 -99 -124 -99 -152s18 -8 43 -8c32 0 52 -26 52 -53c0 -30 -20 -52 -53 -52z" />
    <glyph glyph-name="quoteright" unicode="&#x2019;" horiz-adv-x="230" 
d="M68 415l-10 11c75 62 99 124 99 152s-18 8 -43 8c-32 0 -52 26 -52 53c0 30 20 52 53 52s63 -26 63 -86c0 -61 -32 -124 -110 -190z" />
    <glyph glyph-name="divide" unicode="&#xf7;" horiz-adv-x="470" 
d="M236 447c-27 0 -51 24 -51 51s24 51 51 51s51 -24 51 -51s-24 -51 -51 -51zM42 325v21h385v-21h-385zM236 123c-27 0 -51 25 -51 51c0 27 24 52 51 52s51 -25 51 -52c0 -26 -24 -51 -51 -51z" />
    <glyph glyph-name="lozenge" unicode="&#x25ca;" horiz-adv-x="825" 
d="M621 358c-108 0 -192 84 -192 191c0 80 59 144 125 144c43 0 76 -29 76 -62c0 -22 -18 -44 -43 -44s-45 19 -45 41c0 11 5 26 11 32c12 12 9 22 -3 22c-39 0 -81 -38 -81 -106c0 -85 93 -173 179 -173c68 0 106 37 106 76c0 12 -10 15 -22 3c-6 -6 -21 -11 -32 -11
c-22 0 -41 20 -41 45s22 43 44 43c33 0 62 -33 62 -76c0 -66 -65 -125 -144 -125zM204 358c-79 0 -144 59 -144 125c0 43 29 76 62 76c22 0 44 -18 44 -43s-19 -45 -41 -45c-11 0 -26 5 -32 11c-12 12 -22 9 -22 -3c0 -39 38 -76 106 -76c86 0 179 88 179 173
c0 68 -42 106 -81 106c-12 0 -15 -10 -3 -22c6 -6 11 -21 11 -32c0 -22 -20 -41 -45 -41s-43 22 -43 44c0 33 33 62 76 62c66 0 125 -64 125 -144c0 -107 -84 -191 -192 -191zM554 -9c-66 0 -125 64 -125 144c0 107 84 191 192 191c79 0 144 -59 144 -125
c0 -43 -29 -76 -62 -76c-22 0 -44 18 -44 43s19 45 41 45c11 0 26 -5 32 -11c12 -12 22 -9 22 3c0 39 -38 76 -106 76c-86 0 -179 -88 -179 -173c0 -68 42 -106 81 -106c12 0 15 10 3 22c-6 6 -11 21 -11 32c0 22 20 41 45 41s43 -22 43 -44c0 -33 -33 -62 -76 -62zM271 -9
c-43 0 -76 29 -76 62c0 22 18 44 43 44s45 -19 45 -41c0 -11 -5 -26 -11 -32c-12 -12 -9 -22 3 -22c39 0 81 38 81 106c0 85 -93 173 -179 173c-68 0 -106 -37 -106 -76c0 -12 10 -15 22 -3c6 6 21 11 32 11c22 0 41 -20 41 -45s-22 -43 -44 -43c-33 0 -62 33 -62 76
c0 66 65 125 144 125c108 0 192 -84 192 -191c0 -80 -59 -144 -125 -144z" />
    <glyph glyph-name="ydieresis" unicode="&#xff;" horiz-adv-x="446" 
d="M87 -208c-55 0 -84 34 -84 75c0 31 21 53 51 53c24 0 41 -21 41 -42c0 -18 -7 -28 -14 -35c-6 -6 -11 -9 -11 -17c0 -10 11 -17 26 -17c46 0 77 63 106 133l13 31l-150 364c-18 45 -32 65 -73 68v13h201v-13c-35 -3 -51 -14 -52 -30c-1 -15 4 -32 12 -53l99 -262l90 236
c9 23 19 51 19 70c0 26 -17 36 -55 39v13h148v-13c-44 -3 -55 -27 -71 -68l-161 -394c-50 -123 -88 -151 -135 -151zM325 476c-30 0 -53 25 -53 53s23 53 53 53c28 0 53 -25 53 -53s-25 -53 -53 -53zM155 476c-27 0 -53 25 -53 53s26 53 53 53c29 0 53 -25 53 -53
s-24 -53 -53 -53z" />
    <glyph glyph-name="Ydieresis" unicode="&#x178;" horiz-adv-x="640" 
d="M182 0v15h38c45 0 63 21 63 70v194l-196 328c-23 38 -42 62 -86 62h-6v15h244v-15h-25c-27 0 -45 -11 -45 -30c0 -8 4 -18 11 -30l178 -302l132 234c26 46 31 68 31 85c0 26 -21 43 -58 43h-16v15h198v-15c-70 -10 -90 -58 -134 -133l-144 -246v-205c0 -49 17 -70 62 -70
h38v-15h-285zM420 729c-30 0 -53 25 -53 53s23 53 53 53c28 0 53 -25 53 -53s-25 -53 -53 -53zM250 729c-27 0 -53 25 -53 53s26 53 53 53c29 0 53 -25 53 -53s-24 -53 -53 -53z" />
    <glyph glyph-name="fraction" unicode="&#x2044;" horiz-adv-x="257" 
d="M-39 -6l333 659h25l-335 -659h-23z" />
    <glyph glyph-name="fraction" unicode="&#x2215;" horiz-adv-x="257" 
d="M-39 -6l333 659h25l-335 -659h-23z" />
    <glyph glyph-name="currency" unicode="&#xa4;" horiz-adv-x="482" 
d="M282 -15c-89 0 -199 80 -217 277h-57v16h56c-1 15 -2 30 -2 46c0 17 1 31 2 48c1 0 -56 0 -56 0v16h57c17 192 129 275 235 275c78 0 143 -52 143 -122c0 -40 -23 -63 -53 -63c-27 0 -49 19 -49 50c0 25 16 47 43 50c13 1 27 -4 22 13c-8 27 -49 57 -109 57
c-92 0 -139 -132 -145 -260h174v-16h-175c0 -10 -1 -31 -1 -48c0 -16 0 -31 1 -46h175v-16h-174c3 -135 45 -259 140 -259c71 0 116 65 133 137h17c-26 -102 -76 -155 -160 -155z" />
    <glyph glyph-name="guilsinglleft" unicode="&#x2039;" horiz-adv-x="280" 
d="M225 0l-207 225l207 224h14l-123 -224l123 -225h-14z" />
    <glyph glyph-name="guilsinglright" unicode="&#x203a;" horiz-adv-x="280" 
d="M41 0l123 225l-123 224h14l207 -224l-207 -225h-14z" />
    <glyph glyph-name="daggerdbl" unicode="&#x2021;" horiz-adv-x="447" 
d="M223 -9c-23 0 -40 17 -40 43c0 13 7 28 15 49s19 47 20 105c-36 -1 -55 -10 -70 -18c-20 -10 -39 -16 -51 -16c-23 0 -42 16 -42 40c0 25 19 41 42 41c12 0 31 -7 51 -16c15 -7 33 -18 70 -19c-1 76 -18 110 -40 142c23 33 39 66 40 142c-37 -1 -55 -11 -71 -19
c-19 -9 -38 -16 -50 -16c-24 0 -42 16 -42 41c0 24 18 40 42 40c12 0 31 -6 50 -16c16 -9 36 -17 71 -18c-1 57 -10 85 -19 105c-9 21 -15 36 -15 49c0 26 17 43 40 43s40 -17 40 -43c0 -13 -7 -28 -15 -49c-8 -20 -19 -47 -20 -105c36 1 55 10 70 18c20 10 39 16 51 16
c23 0 42 -16 42 -40c0 -25 -19 -41 -42 -41c-12 0 -31 7 -51 16c-15 7 -33 18 -70 19c1 -76 18 -110 40 -142c-23 -33 -39 -66 -40 -142c37 1 55 11 71 19c19 9 38 16 50 16c24 0 42 -16 42 -41c0 -24 -18 -40 -42 -40c-12 0 -31 6 -50 16c-16 9 -36 17 -71 18
c1 -57 10 -85 19 -105c9 -21 15 -36 15 -49c0 -26 -17 -43 -40 -43z" />
    <glyph glyph-name="periodcentered" unicode="&#xb7;" horiz-adv-x="230" 
d="M115 171c-32 0 -57 25 -57 57s25 57 57 57s57 -25 57 -57s-25 -57 -57 -57z" />
    <glyph glyph-name="periodcentered" unicode="&#x2219;" horiz-adv-x="230" 
d="M115 171c-32 0 -57 25 -57 57s25 57 57 57s57 -25 57 -57s-25 -57 -57 -57z" />
    <glyph glyph-name="quotesinglbase" unicode="&#x201a;" horiz-adv-x="230" 
d="M64 -166l-10 11c75 62 99 124 99 152s-18 8 -43 8c-32 0 -52 26 -52 53c0 30 20 52 53 52s63 -26 63 -86c0 -61 -32 -124 -110 -190z" />
    <glyph glyph-name="quotedblbase" unicode="&#x201e;" horiz-adv-x="391" 
d="M225 -166l-10 11c75 62 99 124 99 152s-18 8 -43 8c-32 0 -52 26 -52 53c0 30 20 52 53 52s63 -26 63 -86c0 -61 -32 -124 -110 -190zM64 -166l-10 11c75 62 99 124 99 152s-18 8 -43 8c-32 0 -52 26 -52 53c0 30 20 52 53 52s63 -26 63 -86c0 -61 -32 -124 -110 -190z
" />
    <glyph glyph-name="perthousand" unicode="&#x2030;" horiz-adv-x="969" 
d="M161 360c-55 0 -139 54 -139 148s84 148 139 148c54 0 139 -55 139 -148c0 -94 -84 -148 -139 -148zM127 -6l356 659h19l-356 -659h-19zM808 -8c-55 0 -139 54 -139 148s84 148 139 148c54 0 139 -55 139 -148c0 -94 -84 -148 -139 -148zM472 -8c-55 0 -139 54 -139 148
s84 148 139 148c54 0 139 -55 139 -148c0 -94 -84 -148 -139 -148zM161 370c48 0 70 53 70 138s-22 136 -70 136s-70 -51 -70 -136s23 -138 70 -138zM808 2c48 0 70 53 70 138s-22 136 -70 136s-70 -51 -70 -136s23 -138 70 -138zM472 2c48 0 70 53 70 138s-22 136 -70 136
s-70 -51 -70 -136s23 -138 70 -138z" />
    <glyph glyph-name="Acircumflex" unicode="&#xc2;" horiz-adv-x="647" 
d="M-2 0v15c56 8 74 41 100 111l213 577h22l226 -617c21 -57 46 -68 90 -71v-15h-266v15h29c38 0 59 17 59 37c0 18 -5 37 -20 79l-34 94h-260l-22 -61c-10 -28 -22 -62 -22 -98c0 -33 19 -51 56 -51h19v-15h-190zM162 240h250l-125 354zM213 709l-7 4l89 143h51l89 -143
l-6 -4l-109 76z" />
    <glyph glyph-name="Ecircumflex" unicode="&#xca;" horiz-adv-x="595" 
d="M10 0v15h29c46 0 63 13 63 61v532c0 48 -17 61 -63 61h-29v15h505l10 -246h-13c-21 151 -57 231 -200 231h-63c-46 0 -64 -12 -64 -60v-246h51c98 0 126 61 127 144h13v-311h-13c-1 84 -28 152 -127 152h-51v-273c0 -48 18 -60 64 -60h82c141 0 172 98 199 252h13
l-17 -267h-516zM192 716l-7 4l89 143h51l89 -143l-6 -4l-109 76z" />
    <glyph glyph-name="Aacute" unicode="&#xc1;" horiz-adv-x="647" 
d="M-2 0v15c56 8 74 41 100 111l213 577h22l226 -617c21 -57 46 -68 90 -71v-15h-266v15h29c38 0 59 17 59 37c0 18 -5 37 -20 79l-34 94h-260l-22 -61c-10 -28 -22 -62 -22 -98c0 -33 19 -51 56 -51h19v-15h-190zM162 240h250l-125 354zM273 727l-8 7l88 118
c17 23 35 33 54 33c21 0 37 -17 37 -34c0 -16 -8 -33 -38 -50z" />
    <glyph glyph-name="Edieresis" unicode="&#xcb;" horiz-adv-x="595" 
d="M10 0v15h29c46 0 63 13 63 61v532c0 48 -17 61 -63 61h-29v15h505l10 -246h-13c-21 151 -57 231 -200 231h-63c-46 0 -64 -12 -64 -60v-246h51c98 0 126 61 127 144h13v-311h-13c-1 84 -28 152 -127 152h-51v-273c0 -48 18 -60 64 -60h82c141 0 172 98 199 252h13
l-17 -267h-516zM382 728c-30 0 -53 25 -53 53s23 53 53 53c28 0 53 -25 53 -53s-25 -53 -53 -53zM212 728c-27 0 -53 25 -53 53s26 53 53 53c29 0 53 -25 53 -53s-24 -53 -53 -53z" />
    <glyph glyph-name="Egrave" unicode="&#xc8;" horiz-adv-x="595" 
d="M10 0v15h29c46 0 63 13 63 61v532c0 48 -17 61 -63 61h-29v15h505l10 -246h-13c-21 151 -57 231 -200 231h-63c-46 0 -64 -12 -64 -60v-246h51c98 0 126 61 127 144h13v-311h-13c-1 84 -28 152 -127 152h-51v-273c0 -48 18 -60 64 -60h82c141 0 172 98 199 252h13
l-17 -267h-516zM354 727l-133 74c-30 17 -38 34 -38 50c0 17 16 34 37 34c18 0 37 -10 54 -33l87 -118z" />
    <glyph glyph-name="Iacute" unicode="&#xcd;" horiz-adv-x="304" 
d="M15 0v15h32c46 0 63 12 63 60v534c0 48 -17 60 -63 60h-32v15h274v-15h-31c-45 0 -63 -12 -63 -60v-534c0 -48 18 -60 63 -60h31v-15h-274zM111 727l-8 7l88 118c17 23 35 33 54 33c21 0 37 -17 37 -34c0 -16 -8 -33 -38 -50z" />
    <glyph glyph-name="Icircumflex" unicode="&#xce;" horiz-adv-x="304" 
d="M15 0v15h32c46 0 63 12 63 60v534c0 48 -17 60 -63 60h-32v15h274v-15h-31c-45 0 -63 -12 -63 -60v-534c0 -48 18 -60 63 -60h31v-15h-274zM44 718l-7 4l89 143h51l89 -143l-6 -4l-109 76z" />
    <glyph glyph-name="Idieresis" unicode="&#xcf;" horiz-adv-x="304" 
d="M15 0v15h32c46 0 63 12 63 60v534c0 48 -17 60 -63 60h-32v15h274v-15h-31c-45 0 -63 -12 -63 -60v-534c0 -48 18 -60 63 -60h31v-15h-274zM236 729c-30 0 -53 25 -53 53s23 53 53 53c28 0 53 -25 53 -53s-25 -53 -53 -53zM66 729c-27 0 -53 25 -53 53s26 53 53 53
c29 0 53 -25 53 -53s-24 -53 -53 -53z" />
    <glyph glyph-name="Igrave" unicode="&#xcc;" horiz-adv-x="304" 
d="M15 0v15h32c46 0 63 12 63 60v534c0 48 -17 60 -63 60h-32v15h274v-15h-31c-45 0 -63 -12 -63 -60v-534c0 -48 18 -60 63 -60h31v-15h-274zM197 727l-133 74c-30 17 -38 34 -38 50c0 17 16 34 37 34c18 0 37 -10 54 -33l87 -118z" />
    <glyph glyph-name="Oacute" unicode="&#xd3;" horiz-adv-x="626" 
d="M312 -16c-134 0 -279 146 -279 356c0 211 147 360 281 360c133 0 279 -148 279 -356s-139 -360 -281 -360zM314 0c140 0 181 155 181 340s-43 344 -183 344s-181 -155 -181 -340s43 -344 183 -344zM267 727l-8 7l88 118c17 23 35 33 54 33c21 0 37 -17 37 -34
c0 -16 -8 -33 -38 -50z" />
    <glyph glyph-name="Ocircumflex" unicode="&#xd4;" horiz-adv-x="626" 
d="M312 -16c-134 0 -279 146 -279 356c0 211 147 360 281 360c133 0 279 -148 279 -356s-139 -360 -281 -360zM314 0c140 0 181 155 181 340s-43 344 -183 344s-181 -155 -181 -340s43 -344 183 -344zM206 716l-7 4l89 143h51l89 -143l-6 -4l-109 76z" />
    <glyph glyph-name="apple" unicode="&#xf8ff;" horiz-adv-x="825" 
d="M621 358c-108 0 -192 84 -192 191c0 80 59 144 125 144c43 0 76 -29 76 -62c0 -22 -18 -44 -43 -44s-45 19 -45 41c0 11 5 26 11 32c12 12 9 22 -3 22c-39 0 -81 -38 -81 -106c0 -85 93 -173 179 -173c68 0 106 37 106 76c0 12 -10 15 -22 3c-6 -6 -21 -11 -32 -11
c-22 0 -41 20 -41 45s22 43 44 43c33 0 62 -33 62 -76c0 -66 -65 -125 -144 -125zM204 358c-79 0 -144 59 -144 125c0 43 29 76 62 76c22 0 44 -18 44 -43s-19 -45 -41 -45c-11 0 -26 5 -32 11c-12 12 -22 9 -22 -3c0 -39 38 -76 106 -76c86 0 179 88 179 173
c0 68 -42 106 -81 106c-12 0 -15 -10 -3 -22c6 -6 11 -21 11 -32c0 -22 -20 -41 -45 -41s-43 22 -43 44c0 33 33 62 76 62c66 0 125 -64 125 -144c0 -107 -84 -191 -192 -191zM554 -9c-66 0 -125 64 -125 144c0 107 84 191 192 191c79 0 144 -59 144 -125
c0 -43 -29 -76 -62 -76c-22 0 -44 18 -44 43s19 45 41 45c11 0 26 -5 32 -11c12 -12 22 -9 22 3c0 39 -38 76 -106 76c-86 0 -179 -88 -179 -173c0 -68 42 -106 81 -106c12 0 15 10 3 22c-6 6 -11 21 -11 32c0 22 20 41 45 41s43 -22 43 -44c0 -33 -33 -62 -76 -62zM271 -9
c-43 0 -76 29 -76 62c0 22 18 44 43 44s45 -19 45 -41c0 -11 -5 -26 -11 -32c-12 -12 -9 -22 3 -22c39 0 81 38 81 106c0 85 -93 173 -179 173c-68 0 -106 -37 -106 -76c0 -12 10 -15 22 -3c6 6 21 11 32 11c22 0 41 -20 41 -45s-22 -43 -44 -43c-33 0 -62 33 -62 76
c0 66 65 125 144 125c108 0 192 -84 192 -191c0 -80 -59 -144 -125 -144z" />
    <glyph glyph-name="Ograve" unicode="&#xd2;" horiz-adv-x="626" 
d="M312 -16c-134 0 -279 146 -279 356c0 211 147 360 281 360c133 0 279 -148 279 -356s-139 -360 -281 -360zM314 0c140 0 181 155 181 340s-43 344 -183 344s-181 -155 -181 -340s43 -344 183 -344zM370 727l-133 74c-30 17 -38 34 -38 50c0 17 16 34 37 34
c18 0 37 -10 54 -33l87 -118z" />
    <glyph glyph-name="Uacute" unicode="&#xda;" horiz-adv-x="674" 
d="M334 -10c-173 0 -237 101 -237 237v381c0 48 -17 61 -63 61h-29v15h267v-15h-28c-46 0 -64 -13 -64 -61v-407c0 -114 61 -188 185 -188c116 0 181 92 181 197v333c0 99 -20 126 -97 126h-3v15h221v-15h-12c-66 0 -88 -27 -88 -126v-322c0 -146 -89 -231 -233 -231z
M325 727l-8 7l88 118c17 23 35 33 54 33c21 0 37 -17 37 -34c0 -16 -8 -33 -38 -50z" />
    <glyph glyph-name="Ucircumflex" unicode="&#xdb;" horiz-adv-x="674" 
d="M334 -10c-173 0 -237 101 -237 237v381c0 48 -17 61 -63 61h-29v15h267v-15h-28c-46 0 -64 -13 -64 -61v-407c0 -114 61 -188 185 -188c116 0 181 92 181 197v333c0 99 -20 126 -97 126h-3v15h221v-15h-12c-66 0 -88 -27 -88 -126v-322c0 -146 -89 -231 -233 -231z
M252 718l-7 4l89 143h51l89 -143l-6 -4l-109 76z" />
    <glyph glyph-name="Ugrave" unicode="&#xd9;" horiz-adv-x="674" 
d="M334 -10c-173 0 -237 101 -237 237v381c0 48 -17 61 -63 61h-29v15h267v-15h-28c-46 0 -64 -13 -64 -61v-407c0 -114 61 -188 185 -188c116 0 181 92 181 197v333c0 99 -20 126 -97 126h-3v15h221v-15h-12c-66 0 -88 -27 -88 -126v-322c0 -146 -89 -231 -233 -231z
M386 727l-133 74c-30 17 -38 34 -38 50c0 17 16 34 37 34c18 0 37 -10 54 -33l87 -118z" />
    <glyph glyph-name="dotlessi" unicode="&#x131;" horiz-adv-x="223" 
d="M15 0v14h8c44 0 54 11 54 56v278c0 46 -10 57 -54 57h-8v13l133 8v-356c0 -45 10 -56 54 -56h8v-14h-195z" />
    <glyph glyph-name="circumflex" unicode="&#x2c6;" 
d="M142 468l-7 4l89 143h51l89 -143l-6 -4l-109 76z" />
    <glyph glyph-name="tilde" unicode="&#x2dc;" 
d="M131 471l-9 2c15 66 36 97 84 96c36 -1 93 -24 121 -25c21 -1 30 10 43 40l8 -2c-15 -67 -36 -99 -83 -98c-37 1 -93 25 -121 26c-21 1 -31 -12 -43 -39z" />
    <glyph glyph-name="macron" unicode="&#xaf;" 
d="M130 471v58h240v-58h-240z" />
    <glyph glyph-name="macron" unicode="&#x2c9;" 
d="M130 471v58h240v-58h-240z" />
    <glyph glyph-name="breve" unicode="&#x2d8;" 
d="M250 460c-73 0 -107 65 -116 143l11 3c15 -47 49 -79 105 -79s92 32 106 79l11 -3c-8 -78 -44 -143 -117 -143z" />
    <glyph glyph-name="dotaccent" unicode="&#x2d9;" 
d="M250 474c-30 0 -55 25 -55 55s25 55 55 55s55 -25 55 -55s-25 -55 -55 -55z" />
    <glyph glyph-name="ring" unicode="&#x2da;" 
d="M250 469c-47 0 -84 38 -84 85s37 85 84 85c48 0 84 -39 84 -85c0 -47 -37 -85 -84 -85zM250 486c38 0 58 30 58 68c0 40 -20 68 -58 68c-36 0 -58 -28 -58 -68c0 -38 22 -68 58 -68z" />
    <glyph glyph-name="cedilla" unicode="&#xb8;" 
d="M261 -203c-39 0 -74 13 -106 37l8 13c29 -21 53 -29 84 -29s49 20 49 51s-17 52 -41 52c-10 0 -14 -1 -22 -3v82h15v-63c4 1 15 3 29 3c47 0 79 -26 79 -66c0 -52 -40 -77 -95 -77z" />
    <glyph glyph-name="hungarumlaut" unicode="&#x2dd;" 
d="M254 455l-7 6l86 114c17 22 33 31 50 31c21 0 36 -15 36 -31s-12 -33 -40 -49zM95 455l-8 6l87 114c17 22 32 31 50 31c20 0 35 -15 35 -31s-11 -33 -39 -49z" />
    <glyph glyph-name="ogonek" unicode="&#x2db;" 
d="M218 -216c-42 0 -73 23 -73 69c0 56 46 103 99 147h20c-39 -42 -59 -82 -59 -125c0 -37 19 -59 52 -59c20 0 36 5 55 18l6 -9c-32 -29 -63 -41 -100 -41z" />
    <glyph glyph-name="caron" unicode="&#x2c7;" 
d="M225 458l-89 143l7 4l108 -76l108 76l6 -4l-89 -143h-51z" />
    <glyph glyph-name="Euro" unicode="&#x20ac;" horiz-adv-x="482" 
d="M282 -15c-89 0 -199 80 -217 277h-57v16h56c-1 15 -2 30 -2 46c0 17 1 31 2 48c1 0 -56 0 -56 0v16h57c17 192 129 275 235 275c78 0 143 -52 143 -122c0 -40 -23 -63 -53 -63c-27 0 -49 19 -49 50c0 25 16 47 43 50c13 1 27 -4 22 13c-8 27 -49 57 -109 57
c-92 0 -139 -132 -145 -260h174v-16h-175c0 -10 -1 -31 -1 -48c0 -16 0 -31 1 -46h175v-16h-174c3 -135 45 -259 140 -259c71 0 116 65 133 137h17c-26 -102 -76 -155 -160 -155z" />
    <glyph glyph-name="R.alt" horiz-adv-x="617" 
d="M10 0v15h29c46 0 63 17 63 61v532c0 48 -17 61 -63 61h-29v15h278c145 0 239 -56 239 -176c0 -105 -95 -169 -198 -182v-1c68 -16 124 -72 166 -189c31 -87 40 -121 90 -121h22v-15h-167l-36 122c-42 142 -82 201 -185 201h-34v-247c0 -43 18 -61 64 -61h36v-15h-275z
M185 338h80c118 0 169 54 169 169c0 96 -27 162 -173 162h-12c-46 0 -64 -12 -64 -60v-271z" />
    </font>
</defs>
</svg>
